<svg width="35" height="26" viewBox="0 0 35 26" fill="none" xmlns="http://www.w3.org/2000/svg">
<path d="M29.3209 2.15526C27.1468 1.15768 24.8154 0.422713 22.3777 0.00176582C22.3333 -0.00635834 22.289 0.0139444 22.2661 0.0545507C21.9663 0.587839 21.6342 1.28356 21.4016 1.83039C18.7798 1.43787 16.1714 1.43787 13.6033 1.83039C13.3707 1.2714 13.0265 0.587839 12.7253 0.0545507C12.7024 0.0152992 12.6581 -0.00500351 12.6137 0.00176582C10.1774 0.421368 7.84602 1.15634 5.67056 2.15526C5.65173 2.16338 5.63558 2.17693 5.62487 2.19451C1.20268 8.80116 -0.00873974 15.2454 0.585543 21.6098C0.588232 21.6409 0.605711 21.6707 0.629913 21.6896C3.54755 23.8323 6.37377 25.1331 9.14752 25.9953C9.19191 26.0088 9.23894 25.9926 9.26719 25.956C9.92332 25.06 10.5082 24.1152 11.0097 23.1217C11.0393 23.0635 11.011 22.9945 10.9505 22.9715C10.0228 22.6195 9.13945 22.1905 8.2897 21.7032C8.22249 21.6639 8.21711 21.5678 8.27894 21.5218C8.45776 21.3878 8.63662 21.2484 8.80737 21.1076C8.83826 21.0819 8.88131 21.0765 8.91763 21.0927C14.5001 23.6415 20.5438 23.6415 26.0604 21.0927C26.0967 21.0751 26.1397 21.0806 26.172 21.1063C26.3428 21.247 26.5216 21.3878 26.7017 21.5218C26.7636 21.5678 26.7595 21.6639 26.6923 21.7032C25.8426 22.1999 24.9592 22.6195 24.0301 22.9701C23.9697 22.9931 23.9428 23.0635 23.9723 23.1217C24.4846 24.1138 25.0695 25.0586 25.7135 25.9547C25.7404 25.9926 25.7888 26.0088 25.8332 25.9953C28.6204 25.1331 31.4466 23.8323 34.3642 21.6896C34.3898 21.6707 34.4059 21.6423 34.4086 21.6111C35.1198 14.2532 33.2173 7.86182 29.3652 2.19585C29.3558 2.17693 29.3397 2.16338 29.3209 2.15526ZM11.8433 17.7346C10.1626 17.7346 8.77777 16.1916 8.77777 14.2966C8.77777 12.4016 10.1358 10.8586 11.8433 10.8586C13.5643 10.8586 14.9357 12.4151 14.9088 14.2966C14.9088 16.1916 13.5508 17.7346 11.8433 17.7346ZM23.1777 17.7346C21.497 17.7346 20.1122 16.1916 20.1122 14.2966C20.1122 12.4016 21.4701 10.8586 23.1777 10.8586C24.8987 10.8586 26.2701 12.4151 26.2433 14.2966C26.2433 16.1916 24.8987 17.7346 23.1777 17.7346Z" fill="#5865F2"/>
</svg>
