<svg width="31" height="30" viewBox="0 0 31 30" fill="none" xmlns="http://www.w3.org/2000/svg">
<path d="M28.7 15.3125C28.7 14.3375 28.6125 13.4 28.45 12.5H15.5V17.8188H22.9C22.5813 19.5375 21.6125 20.9938 20.1563 21.9688V25.4187H24.6C27.2 23.025 28.7 19.5 28.7 15.3125Z" fill="#4285F4"/>
<path d="M15.5 28.75C19.2125 28.75 22.325 27.5188 24.6 25.4188L20.1563 21.9688C18.925 22.7938 17.35 23.2813 15.5 23.2813C11.9188 23.2813 8.88752 20.8625 7.80627 17.6125H3.21252V21.175C5.47502 25.6688 10.125 28.75 15.5 28.75Z" fill="#34A853"/>
<path d="M7.80625 17.6125C7.53125 16.7875 7.375 15.9062 7.375 15C7.375 14.0937 7.53125 13.2125 7.80625 12.3875V8.825H3.2125C2.25 10.7411 1.74915 12.8558 1.75 15C1.75 17.2187 2.28125 19.3187 3.2125 21.175L7.80625 17.6125Z" fill="#FBBC05"/>
<path d="M15.5 6.71875C17.5188 6.71875 19.3313 7.4125 20.7563 8.775L24.7 4.83125C22.3188 2.6125 19.2063 1.25 15.5 1.25C10.125 1.25 5.47502 4.33125 3.21252 8.825L7.80627 12.3875C8.88752 9.1375 11.9188 6.71875 15.5 6.71875Z" fill="#EA4335"/>
</svg>
