<svg width="40" height="40" viewBox="0 0 40 40" fill="none" xmlns="http://www.w3.org/2000/svg">
<path d="M25.0002 37.9167H15.0002C5.95016 37.9167 2.0835 34.05 2.0835 25V15C2.0835 5.95001 5.95016 2.08334 15.0002 2.08334H25.0002C34.0502 2.08334 37.9168 5.95001 37.9168 15V25C37.9168 34.05 34.0502 37.9167 25.0002 37.9167ZM15.0002 4.58334C7.31683 4.58334 4.5835 7.31668 4.5835 15V25C4.5835 32.6833 7.31683 35.4167 15.0002 35.4167H25.0002C32.6835 35.4167 35.4168 32.6833 35.4168 25V15C35.4168 7.31668 32.6835 4.58334 25.0002 4.58334H15.0002Z" fill="#0A274A"/>
<path d="M22.0999 27.1333C21.7832 27.1333 21.4665 27.0167 21.2165 26.7667L15.3332 20.8833C14.8499 20.4 14.8499 19.6 15.3332 19.1167L21.2165 13.2333C21.6999 12.75 22.4999 12.75 22.9832 13.2333C23.4665 13.7167 23.4665 14.5167 22.9832 15L17.9832 20L22.9832 25C23.4665 25.4833 23.4665 26.2833 22.9832 26.7667C22.7499 27.0167 22.4332 27.1333 22.0999 27.1333Z" fill="#0A274A"/>
</svg>
