<svg width="650" height="864" viewBox="0 0 650 864" fill="none" xmlns="http://www.w3.org/2000/svg">
<rect width="650" height="864" rx="20" fill="#060513"/>
<path d="M106.774 84.9054H96.0865C94.9428 70.4861 80.4849 71.1061 80.4849 71.1061V60C106.407 61.5603 106.774 84.9054 106.774 84.9054Z" fill="white"/>
<path d="M86.2947 84.9054H75.6071C74.4579 70.4861 60 71.1061 60 71.1061V60C85.9333 61.5603 86.2947 84.9054 86.2947 84.9054Z" fill="white"/>
<path d="M114.986 84.5594V71.0274H116.995V73.1418H117.171C117.453 72.4194 117.908 71.8585 118.536 71.4591C119.165 71.0539 119.919 70.8512 120.8 70.8512C121.693 70.8512 122.436 71.0539 123.029 71.4591C123.628 71.8585 124.095 72.4194 124.43 73.1418H124.571C124.918 72.4429 125.437 71.8879 126.13 71.4767C126.823 71.0597 127.654 70.8512 128.624 70.8512C129.833 70.8512 130.823 71.2301 131.593 71.9877C132.362 72.7395 132.747 73.9112 132.747 75.5029V84.5594H130.667V75.5029C130.667 74.5044 130.394 73.7908 129.848 73.3621C129.302 72.9333 128.659 72.7189 127.919 72.7189C126.967 72.7189 126.23 73.0067 125.708 73.5823C125.185 74.152 124.923 74.8744 124.923 75.7495V84.5594H122.809V75.2914C122.809 74.522 122.559 73.9024 122.06 73.4325C121.561 72.9568 120.918 72.7189 120.131 72.7189C119.591 72.7189 119.085 72.8628 118.616 73.1506C118.152 73.4384 117.776 73.8378 117.488 74.3488C117.206 74.8539 117.065 75.4383 117.065 76.1019V84.5594H114.986ZM136.548 84.5594V71.0274H138.627V84.5594H136.548ZM137.605 68.7721C137.2 68.7721 136.851 68.6341 136.557 68.3581C136.269 68.082 136.125 67.7502 136.125 67.3625C136.125 66.9749 136.269 66.6431 136.557 66.367C136.851 66.091 137.2 65.953 137.605 65.953C138.01 65.953 138.357 66.091 138.645 66.367C138.938 66.6431 139.085 66.9749 139.085 67.3625C139.085 67.7502 138.938 68.082 138.645 68.3581C138.357 68.6341 138.01 68.7721 137.605 68.7721ZM147.933 84.8413C146.664 84.8413 145.572 84.5418 144.655 83.9427C143.739 83.3437 143.034 82.5185 142.541 81.4672C142.048 80.4158 141.801 79.2148 141.801 77.8639C141.801 76.4896 142.053 75.2767 142.559 74.2254C143.07 73.1682 143.78 72.3431 144.691 71.7499C145.607 71.1508 146.676 70.8512 147.897 70.8512C148.849 70.8512 149.706 71.0274 150.47 71.3798C151.233 71.7322 151.859 72.2256 152.346 72.8599C152.834 73.4942 153.136 74.2342 153.254 75.08H151.175C151.016 74.4633 150.664 73.9171 150.117 73.4414C149.577 72.9597 148.849 72.7189 147.933 72.7189C147.122 72.7189 146.411 72.9304 145.801 73.3533C145.196 73.7703 144.723 74.3605 144.382 75.124C144.047 75.8817 143.88 76.7715 143.88 77.7934C143.88 78.8389 144.045 79.7492 144.373 80.5245C144.708 81.2998 145.178 81.9018 145.783 82.3305C146.394 82.7593 147.11 82.9736 147.933 82.9736C148.473 82.9736 148.963 82.8797 149.404 82.6917C149.844 82.5038 150.217 82.2336 150.523 81.8812C150.828 81.5288 151.045 81.1059 151.175 80.6126H153.254C153.136 81.4114 152.846 82.1308 152.382 82.771C151.923 83.4053 151.316 83.9104 150.558 84.2863C149.806 84.6563 148.931 84.8413 147.933 84.8413ZM156.293 84.5594V71.0274H158.302V73.0713H158.443C158.689 72.4018 159.136 71.8585 159.782 71.4415C160.428 71.0245 161.156 70.816 161.967 70.816C162.119 70.816 162.31 70.8189 162.539 70.8248C162.768 70.8307 162.942 70.8395 163.059 70.8512V72.9656C162.989 72.948 162.827 72.9216 162.575 72.8863C162.328 72.8452 162.067 72.8247 161.791 72.8247C161.133 72.8247 160.545 72.9627 160.029 73.2387C159.518 73.5089 159.112 73.8848 158.813 74.3664C158.519 74.8421 158.372 75.3854 158.372 75.9962V84.5594H156.293ZM170.609 84.8413C169.388 84.8413 168.316 84.5506 167.394 83.9692C166.477 83.3877 165.761 82.5743 165.244 81.5288C164.733 80.4834 164.478 79.2617 164.478 77.8639C164.478 76.4543 164.733 75.2239 165.244 74.1726C165.761 73.1213 166.477 72.3049 167.394 71.7234C168.316 71.142 169.388 70.8512 170.609 70.8512C171.831 70.8512 172.9 71.142 173.816 71.7234C174.738 72.3049 175.455 73.1213 175.966 74.1726C176.483 75.2239 176.741 76.4543 176.741 77.8639C176.741 79.2617 176.483 80.4834 175.966 81.5288C175.455 82.5743 174.738 83.3877 173.816 83.9692C172.9 84.5506 171.831 84.8413 170.609 84.8413ZM170.609 82.9736C171.537 82.9736 172.301 82.7358 172.9 82.26C173.499 81.7843 173.942 81.1588 174.23 80.3835C174.518 79.6083 174.662 78.7684 174.662 77.8639C174.662 76.9594 174.518 76.1166 174.23 75.3355C173.942 74.5543 173.499 73.923 172.9 73.4414C172.301 72.9597 171.537 72.7189 170.609 72.7189C169.681 72.7189 168.918 72.9597 168.319 73.4414C167.72 73.923 167.276 74.5543 166.988 75.3355C166.701 76.1166 166.557 76.9594 166.557 77.8639C166.557 78.7684 166.701 79.6083 166.988 80.3835C167.276 81.1588 167.72 81.7843 168.319 82.26C168.918 82.7358 169.681 82.9736 170.609 82.9736ZM185.941 71.0274V72.7894H178.646V71.0274H185.941ZM180.831 84.5594V69.1597C180.831 68.3845 181.013 67.7384 181.377 67.2216C181.741 66.7047 182.214 66.3171 182.796 66.0587C183.377 65.8002 183.991 65.671 184.637 65.671C185.148 65.671 185.565 65.7121 185.888 65.7944C186.211 65.8766 186.452 65.953 186.61 66.0234L186.011 67.8206C185.905 67.7854 185.759 67.7414 185.571 67.6885C185.389 67.6356 185.148 67.6092 184.848 67.6092C184.161 67.6092 183.665 67.7825 183.359 68.129C183.06 68.4755 182.91 68.9836 182.91 69.6531V84.5594H180.831ZM190.934 66.5168V84.5594H188.855V66.5168H190.934ZM200.239 84.8413C199.017 84.8413 197.946 84.5506 197.023 83.9692C196.107 83.3877 195.391 82.5743 194.874 81.5288C194.363 80.4834 194.107 79.2617 194.107 77.8639C194.107 76.4543 194.363 75.2239 194.874 74.1726C195.391 73.1213 196.107 72.3049 197.023 71.7234C197.946 71.142 199.017 70.8512 200.239 70.8512C201.461 70.8512 202.53 71.142 203.446 71.7234C204.368 72.3049 205.085 73.1213 205.595 74.1726C206.112 75.2239 206.371 76.4543 206.371 77.8639C206.371 79.2617 206.112 80.4834 205.595 81.5288C205.085 82.5743 204.368 83.3877 203.446 83.9692C202.53 84.5506 201.461 84.8413 200.239 84.8413ZM200.239 82.9736C201.167 82.9736 201.931 82.7358 202.53 82.26C203.129 81.7843 203.572 81.1588 203.86 80.3835C204.148 79.6083 204.292 78.7684 204.292 77.8639C204.292 76.9594 204.148 76.1166 203.86 75.3355C203.572 74.5543 203.129 73.923 202.53 73.4414C201.931 72.9597 201.167 72.7189 200.239 72.7189C199.311 72.7189 198.548 72.9597 197.949 73.4414C197.349 73.923 196.906 74.5543 196.618 75.3355C196.33 76.1166 196.187 76.9594 196.187 77.8639C196.187 78.7684 196.33 79.6083 196.618 80.3835C196.906 81.1588 197.349 81.7843 197.949 82.26C198.548 82.7358 199.311 82.9736 200.239 82.9736ZM212.15 84.5594L208.027 71.0274H210.212L213.137 81.3879H213.278L216.167 71.0274H218.387L221.242 81.3526H221.383L224.308 71.0274H226.493L222.369 84.5594H220.326L217.365 74.1638H217.154L214.194 84.5594H212.15Z" fill="white"/>
<path d="M63.4432 256V221.091H69.767V250.699H85.142V256H63.4432ZM101.778 256.511C99.2216 256.511 97.0057 255.949 95.1307 254.824C93.2557 253.699 91.8011 252.125 90.767 250.102C89.7443 248.08 89.233 245.716 89.233 243.011C89.233 240.307 89.7443 237.937 90.767 235.903C91.8011 233.869 93.2557 232.29 95.1307 231.165C97.0057 230.04 99.2216 229.477 101.778 229.477C104.335 229.477 106.551 230.04 108.426 231.165C110.301 232.29 111.75 233.869 112.773 235.903C113.807 237.937 114.324 240.307 114.324 243.011C114.324 245.716 113.807 248.08 112.773 250.102C111.75 252.125 110.301 253.699 108.426 254.824C106.551 255.949 104.335 256.511 101.778 256.511ZM101.812 251.568C103.199 251.568 104.358 251.187 105.29 250.426C106.222 249.653 106.915 248.619 107.369 247.324C107.835 246.028 108.068 244.585 108.068 242.994C108.068 241.392 107.835 239.943 107.369 238.648C106.915 237.341 106.222 236.301 105.29 235.528C104.358 234.756 103.199 234.369 101.812 234.369C100.392 234.369 99.2102 234.756 98.267 235.528C97.3352 236.301 96.6364 237.341 96.1705 238.648C95.7159 239.943 95.4886 241.392 95.4886 242.994C95.4886 244.585 95.7159 246.028 96.1705 247.324C96.6364 248.619 97.3352 249.653 98.267 250.426C99.2102 251.187 100.392 251.568 101.812 251.568ZM119.561 256V229.818H125.544V234.182H125.817C126.294 232.67 127.112 231.506 128.271 230.688C129.442 229.858 130.777 229.443 132.277 229.443C132.618 229.443 132.999 229.46 133.419 229.494C133.851 229.517 134.209 229.557 134.493 229.614V235.29C134.232 235.199 133.817 235.119 133.249 235.051C132.692 234.972 132.152 234.932 131.629 234.932C130.504 234.932 129.493 235.176 128.595 235.665C127.709 236.142 127.01 236.807 126.499 237.659C125.987 238.511 125.732 239.494 125.732 240.608V256H119.561ZM149.105 256.511C146.48 256.511 144.213 255.966 142.304 254.875C140.406 253.773 138.946 252.216 137.923 250.205C136.901 248.182 136.389 245.801 136.389 243.062C136.389 240.369 136.901 238.006 137.923 235.972C138.957 233.926 140.401 232.335 142.253 231.199C144.105 230.051 146.281 229.477 148.781 229.477C150.395 229.477 151.918 229.739 153.349 230.261C154.793 230.773 156.065 231.568 157.168 232.648C158.281 233.727 159.156 235.102 159.793 236.773C160.429 238.432 160.747 240.409 160.747 242.705V244.597H139.287V240.438H154.832C154.821 239.256 154.565 238.205 154.065 237.284C153.565 236.352 152.866 235.619 151.969 235.085C151.082 234.551 150.048 234.284 148.866 234.284C147.605 234.284 146.497 234.591 145.543 235.205C144.588 235.807 143.844 236.602 143.31 237.591C142.787 238.568 142.52 239.642 142.509 240.812V244.443C142.509 245.966 142.787 247.273 143.344 248.364C143.901 249.443 144.679 250.273 145.679 250.852C146.679 251.42 147.849 251.705 149.19 251.705C150.088 251.705 150.901 251.58 151.628 251.33C152.355 251.068 152.986 250.688 153.52 250.188C154.054 249.688 154.457 249.068 154.73 248.33L160.491 248.977C160.128 250.5 159.435 251.83 158.412 252.966C157.401 254.091 156.105 254.966 154.526 255.591C152.946 256.205 151.139 256.511 149.105 256.511ZM165.967 256V229.818H171.865V234.267H172.172C172.717 232.767 173.621 231.597 174.882 230.756C176.143 229.903 177.649 229.477 179.399 229.477C181.172 229.477 182.666 229.909 183.882 230.773C185.109 231.625 185.973 232.79 186.473 234.267H186.746C187.325 232.812 188.303 231.653 189.678 230.79C191.064 229.915 192.706 229.477 194.604 229.477C197.013 229.477 198.979 230.239 200.501 231.761C202.024 233.284 202.786 235.506 202.786 238.426V256H196.598V239.381C196.598 237.756 196.166 236.568 195.303 235.818C194.439 235.057 193.382 234.676 192.132 234.676C190.643 234.676 189.479 235.142 188.638 236.074C187.808 236.994 187.393 238.193 187.393 239.67V256H181.342V239.125C181.342 237.773 180.933 236.693 180.115 235.886C179.308 235.08 178.251 234.676 176.945 234.676C176.058 234.676 175.251 234.903 174.524 235.358C173.797 235.801 173.217 236.432 172.786 237.25C172.354 238.057 172.138 239 172.138 240.08V256H165.967ZM220.952 256V229.818H227.122V256H220.952ZM224.054 226.102C223.077 226.102 222.236 225.778 221.531 225.131C220.827 224.472 220.474 223.682 220.474 222.761C220.474 221.83 220.827 221.04 221.531 220.392C222.236 219.733 223.077 219.403 224.054 219.403C225.043 219.403 225.884 219.733 226.577 220.392C227.281 221.04 227.634 221.83 227.634 222.761C227.634 223.682 227.281 224.472 226.577 225.131C225.884 225.778 225.043 226.102 224.054 226.102ZM233.467 265.818V229.818H239.536V234.148H239.893C240.212 233.511 240.661 232.835 241.24 232.119C241.82 231.392 242.604 230.773 243.592 230.261C244.581 229.739 245.842 229.477 247.376 229.477C249.399 229.477 251.223 229.994 252.848 231.028C254.484 232.051 255.78 233.568 256.734 235.58C257.7 237.58 258.183 240.034 258.183 242.943C258.183 245.818 257.712 248.261 256.768 250.273C255.825 252.284 254.541 253.818 252.916 254.875C251.291 255.932 249.45 256.46 247.393 256.46C245.893 256.46 244.649 256.21 243.661 255.71C242.672 255.21 241.876 254.608 241.274 253.903C240.683 253.187 240.223 252.511 239.893 251.875H239.638V265.818H233.467ZM239.518 242.909C239.518 244.602 239.757 246.085 240.234 247.358C240.723 248.631 241.422 249.625 242.331 250.341C243.251 251.045 244.365 251.398 245.672 251.398C247.036 251.398 248.178 251.034 249.098 250.307C250.018 249.568 250.712 248.562 251.178 247.29C251.655 246.006 251.893 244.545 251.893 242.909C251.893 241.284 251.661 239.841 251.195 238.58C250.729 237.318 250.036 236.33 249.115 235.614C248.195 234.898 247.047 234.54 245.672 234.54C244.354 234.54 243.234 234.886 242.314 235.58C241.393 236.273 240.695 237.244 240.217 238.494C239.751 239.744 239.518 241.216 239.518 242.909ZM284.161 236.739L278.536 237.352C278.376 236.784 278.098 236.25 277.7 235.75C277.314 235.25 276.791 234.847 276.132 234.54C275.473 234.233 274.666 234.08 273.712 234.08C272.428 234.08 271.348 234.358 270.473 234.915C269.609 235.472 269.183 236.193 269.195 237.08C269.183 237.841 269.462 238.46 270.03 238.938C270.609 239.415 271.564 239.807 272.893 240.114L277.359 241.068C279.837 241.602 281.678 242.449 282.882 243.608C284.098 244.767 284.712 246.284 284.723 248.159C284.712 249.807 284.229 251.261 283.274 252.523C282.331 253.773 281.018 254.75 279.337 255.455C277.655 256.159 275.723 256.511 273.541 256.511C270.337 256.511 267.757 255.841 265.803 254.5C263.848 253.148 262.683 251.267 262.308 248.858L268.325 248.278C268.598 249.46 269.178 250.352 270.064 250.955C270.95 251.557 272.104 251.858 273.524 251.858C274.99 251.858 276.166 251.557 277.053 250.955C277.95 250.352 278.399 249.608 278.399 248.722C278.399 247.972 278.109 247.352 277.53 246.864C276.962 246.375 276.075 246 274.871 245.739L270.405 244.801C267.893 244.278 266.036 243.398 264.831 242.159C263.626 240.909 263.03 239.33 263.041 237.42C263.03 235.807 263.467 234.409 264.354 233.227C265.251 232.034 266.496 231.114 268.087 230.466C269.689 229.807 271.536 229.477 273.626 229.477C276.695 229.477 279.109 230.131 280.871 231.438C282.643 232.744 283.74 234.511 284.161 236.739ZM306.499 244.989V229.818H312.669V256H306.686V251.347H306.413C305.822 252.812 304.851 254.011 303.499 254.943C302.158 255.875 300.504 256.341 298.538 256.341C296.822 256.341 295.305 255.96 293.987 255.199C292.68 254.426 291.658 253.307 290.919 251.841C290.18 250.364 289.811 248.58 289.811 246.489V229.818H295.982V245.534C295.982 247.193 296.436 248.511 297.345 249.489C298.254 250.466 299.447 250.955 300.925 250.955C301.834 250.955 302.714 250.733 303.567 250.29C304.419 249.847 305.118 249.188 305.663 248.312C306.22 247.426 306.499 246.318 306.499 244.989ZM319.014 256V229.818H324.912V234.267H325.219C325.764 232.767 326.668 231.597 327.929 230.756C329.19 229.903 330.696 229.477 332.446 229.477C334.219 229.477 335.713 229.909 336.929 230.773C338.156 231.625 339.02 232.79 339.52 234.267H339.793C340.372 232.812 341.349 231.653 342.724 230.79C344.111 229.915 345.753 229.477 347.651 229.477C350.06 229.477 352.026 230.239 353.548 231.761C355.071 233.284 355.832 235.506 355.832 238.426V256H349.645V239.381C349.645 237.756 349.213 236.568 348.349 235.818C347.486 235.057 346.429 234.676 345.179 234.676C343.69 234.676 342.526 235.142 341.685 236.074C340.855 236.994 340.44 238.193 340.44 239.67V256H334.389V239.125C334.389 237.773 333.98 236.693 333.162 235.886C332.355 235.08 331.298 234.676 329.991 234.676C329.105 234.676 328.298 234.903 327.571 235.358C326.844 235.801 326.264 236.432 325.832 237.25C325.401 238.057 325.185 239 325.185 240.08V256H319.014ZM72.8864 314.46C70.8295 314.46 68.9886 313.932 67.3636 312.875C65.7386 311.818 64.4545 310.284 63.5114 308.273C62.5682 306.261 62.0966 303.818 62.0966 300.943C62.0966 298.034 62.5739 295.58 63.5284 293.58C64.4943 291.568 65.7955 290.051 67.4318 289.028C69.0682 287.994 70.892 287.477 72.9034 287.477C74.4375 287.477 75.6989 287.739 76.6875 288.261C77.6761 288.773 78.4602 289.392 79.0398 290.119C79.6193 290.835 80.0682 291.511 80.3864 292.148H80.642V279.091H86.8295V314H80.7614V309.875H80.3864C80.0682 310.511 79.608 311.187 79.0057 311.903C78.4034 312.608 77.608 313.21 76.6193 313.71C75.6307 314.21 74.3864 314.46 72.8864 314.46ZM74.608 309.398C75.9148 309.398 77.0284 309.045 77.9489 308.341C78.8693 307.625 79.5682 306.631 80.0455 305.358C80.5227 304.085 80.7614 302.602 80.7614 300.909C80.7614 299.216 80.5227 297.744 80.0455 296.494C79.5795 295.244 78.8864 294.273 77.9659 293.58C77.0568 292.886 75.9375 292.54 74.608 292.54C73.233 292.54 72.0852 292.898 71.1648 293.614C70.2443 294.33 69.5511 295.318 69.0852 296.58C68.6193 297.841 68.3864 299.284 68.3864 300.909C68.3864 302.545 68.6193 304.006 69.0852 305.29C69.5625 306.562 70.2614 307.568 71.1818 308.307C72.1136 309.034 73.2557 309.398 74.608 309.398ZM104.825 314.511C102.268 314.511 100.053 313.949 98.1776 312.824C96.3026 311.699 94.848 310.125 93.8139 308.102C92.7912 306.08 92.2798 303.716 92.2798 301.011C92.2798 298.307 92.7912 295.937 93.8139 293.903C94.848 291.869 96.3026 290.29 98.1776 289.165C100.053 288.04 102.268 287.477 104.825 287.477C107.382 287.477 109.598 288.04 111.473 289.165C113.348 290.29 114.797 291.869 115.82 293.903C116.854 295.937 117.371 298.307 117.371 301.011C117.371 303.716 116.854 306.08 115.82 308.102C114.797 310.125 113.348 311.699 111.473 312.824C109.598 313.949 107.382 314.511 104.825 314.511ZM104.859 309.568C106.246 309.568 107.405 309.187 108.337 308.426C109.268 307.653 109.962 306.619 110.416 305.324C110.882 304.028 111.115 302.585 111.115 300.994C111.115 299.392 110.882 297.943 110.416 296.648C109.962 295.341 109.268 294.301 108.337 293.528C107.405 292.756 106.246 292.369 104.859 292.369C103.439 292.369 102.257 292.756 101.314 293.528C100.382 294.301 99.6832 295.341 99.2173 296.648C98.7628 297.943 98.5355 299.392 98.5355 300.994C98.5355 302.585 98.7628 304.028 99.2173 305.324C99.6832 306.619 100.382 307.653 101.314 308.426C102.257 309.187 103.439 309.568 104.859 309.568ZM128.778 279.091V314H122.608V279.091H128.778ZM146.544 314.511C143.987 314.511 141.771 313.949 139.896 312.824C138.021 311.699 136.567 310.125 135.533 308.102C134.51 306.08 133.999 303.716 133.999 301.011C133.999 298.307 134.51 295.937 135.533 293.903C136.567 291.869 138.021 290.29 139.896 289.165C141.771 288.04 143.987 287.477 146.544 287.477C149.101 287.477 151.317 288.04 153.192 289.165C155.067 290.29 156.516 291.869 157.538 293.903C158.572 295.937 159.089 298.307 159.089 301.011C159.089 303.716 158.572 306.08 157.538 308.102C156.516 310.125 155.067 311.699 153.192 312.824C151.317 313.949 149.101 314.511 146.544 314.511ZM146.578 309.568C147.964 309.568 149.124 309.187 150.055 308.426C150.987 307.653 151.68 306.619 152.135 305.324C152.601 304.028 152.834 302.585 152.834 300.994C152.834 299.392 152.601 297.943 152.135 296.648C151.68 295.341 150.987 294.301 150.055 293.528C149.124 292.756 147.964 292.369 146.578 292.369C145.158 292.369 143.976 292.756 143.033 293.528C142.101 294.301 141.402 295.341 140.936 296.648C140.482 297.943 140.254 299.392 140.254 300.994C140.254 302.585 140.482 304.028 140.936 305.324C141.402 306.619 142.101 307.653 143.033 308.426C143.976 309.187 145.158 309.568 146.578 309.568ZM164.327 314V287.818H170.31V292.182H170.582C171.06 290.67 171.878 289.506 173.037 288.688C174.207 287.858 175.543 287.443 177.043 287.443C177.384 287.443 177.764 287.46 178.185 287.494C178.616 287.517 178.974 287.557 179.259 287.614V293.29C178.997 293.199 178.582 293.119 178.014 293.051C177.457 292.972 176.918 292.932 176.395 292.932C175.27 292.932 174.259 293.176 173.361 293.665C172.474 294.142 171.776 294.807 171.264 295.659C170.753 296.511 170.497 297.494 170.497 298.608V314H164.327ZM215.957 294.739L210.332 295.352C210.173 294.784 209.895 294.25 209.497 293.75C209.111 293.25 208.588 292.847 207.929 292.54C207.27 292.233 206.463 292.08 205.509 292.08C204.224 292.08 203.145 292.358 202.27 292.915C201.406 293.472 200.98 294.193 200.991 295.08C200.98 295.841 201.259 296.46 201.827 296.938C202.406 297.415 203.361 297.807 204.69 298.114L209.156 299.068C211.634 299.602 213.474 300.449 214.679 301.608C215.895 302.767 216.509 304.284 216.52 306.159C216.509 307.807 216.026 309.261 215.071 310.523C214.128 311.773 212.815 312.75 211.134 313.455C209.452 314.159 207.52 314.511 205.338 314.511C202.134 314.511 199.554 313.841 197.599 312.5C195.645 311.148 194.48 309.267 194.105 306.858L200.122 306.278C200.395 307.46 200.974 308.352 201.861 308.955C202.747 309.557 203.901 309.858 205.321 309.858C206.787 309.858 207.963 309.557 208.849 308.955C209.747 308.352 210.196 307.608 210.196 306.722C210.196 305.972 209.906 305.352 209.327 304.864C208.759 304.375 207.872 304 206.668 303.739L202.202 302.801C199.69 302.278 197.832 301.398 196.628 300.159C195.423 298.909 194.827 297.33 194.838 295.42C194.827 293.807 195.264 292.409 196.151 291.227C197.048 290.034 198.293 289.114 199.884 288.466C201.486 287.807 203.332 287.477 205.423 287.477C208.491 287.477 210.906 288.131 212.668 289.438C214.44 290.744 215.537 292.511 215.957 294.739ZM221.608 314V287.818H227.778V314H221.608ZM224.71 284.102C223.733 284.102 222.892 283.778 222.188 283.131C221.483 282.472 221.131 281.682 221.131 280.761C221.131 279.83 221.483 279.04 222.188 278.392C222.892 277.733 223.733 277.403 224.71 277.403C225.699 277.403 226.54 277.733 227.233 278.392C227.938 279.04 228.29 279.83 228.29 280.761C228.29 281.682 227.938 282.472 227.233 283.131C226.54 283.778 225.699 284.102 224.71 284.102ZM247.197 287.818V292.591H232.146V287.818H247.197ZM235.862 281.545H242.033V306.125C242.033 306.955 242.158 307.591 242.408 308.034C242.669 308.466 243.01 308.761 243.43 308.92C243.851 309.08 244.317 309.159 244.828 309.159C245.214 309.159 245.567 309.131 245.885 309.074C246.214 309.017 246.464 308.966 246.635 308.92L247.675 313.744C247.345 313.858 246.874 313.983 246.26 314.119C245.658 314.256 244.919 314.335 244.044 314.358C242.499 314.403 241.107 314.17 239.868 313.659C238.629 313.136 237.646 312.33 236.919 311.239C236.203 310.148 235.851 308.784 235.862 307.148V281.545ZM271.798 314.528C270.139 314.528 268.645 314.233 267.315 313.642C265.997 313.04 264.952 312.153 264.179 310.983C263.418 309.812 263.037 308.369 263.037 306.653C263.037 305.176 263.31 303.955 263.855 302.989C264.401 302.023 265.145 301.25 266.088 300.67C267.031 300.091 268.094 299.653 269.276 299.358C270.469 299.051 271.702 298.83 272.974 298.693C274.509 298.534 275.753 298.392 276.707 298.267C277.662 298.131 278.355 297.926 278.787 297.653C279.23 297.369 279.452 296.932 279.452 296.341V296.239C279.452 294.955 279.071 293.96 278.31 293.256C277.548 292.551 276.452 292.199 275.02 292.199C273.509 292.199 272.31 292.528 271.423 293.188C270.548 293.847 269.957 294.625 269.651 295.523L263.889 294.705C264.344 293.114 265.094 291.784 266.139 290.716C267.185 289.636 268.463 288.83 269.974 288.295C271.486 287.75 273.156 287.477 274.986 287.477C276.247 287.477 277.503 287.625 278.753 287.92C280.003 288.216 281.145 288.705 282.179 289.386C283.213 290.057 284.043 290.972 284.668 292.131C285.304 293.29 285.622 294.739 285.622 296.477V314H279.69V310.403H279.486C279.111 311.131 278.582 311.812 277.901 312.449C277.23 313.074 276.384 313.58 275.361 313.966C274.349 314.341 273.162 314.528 271.798 314.528ZM273.401 309.994C274.639 309.994 275.713 309.75 276.622 309.261C277.531 308.761 278.23 308.102 278.719 307.284C279.219 306.466 279.469 305.574 279.469 304.608V301.523C279.276 301.682 278.946 301.83 278.48 301.966C278.026 302.102 277.514 302.222 276.946 302.324C276.378 302.426 275.815 302.517 275.259 302.597C274.702 302.676 274.219 302.744 273.81 302.801C272.889 302.926 272.065 303.131 271.338 303.415C270.611 303.699 270.037 304.097 269.616 304.608C269.196 305.108 268.986 305.756 268.986 306.551C268.986 307.688 269.401 308.545 270.23 309.125C271.06 309.705 272.116 309.994 273.401 309.994ZM291.827 314V287.818H297.724V292.267H298.031C298.577 290.767 299.48 289.597 300.741 288.756C302.003 287.903 303.509 287.477 305.259 287.477C307.031 287.477 308.526 287.909 309.741 288.773C310.969 289.625 311.832 290.79 312.332 292.267H312.605C313.185 290.812 314.162 289.653 315.537 288.79C316.923 287.915 318.565 287.477 320.463 287.477C322.872 287.477 324.838 288.239 326.361 289.761C327.884 291.284 328.645 293.506 328.645 296.426V314H322.457V297.381C322.457 295.756 322.026 294.568 321.162 293.818C320.298 293.057 319.241 292.676 317.991 292.676C316.503 292.676 315.338 293.142 314.497 294.074C313.668 294.994 313.253 296.193 313.253 297.67V314H307.202V297.125C307.202 295.773 306.793 294.693 305.974 293.886C305.168 293.08 304.111 292.676 302.804 292.676C301.918 292.676 301.111 292.903 300.384 293.358C299.656 293.801 299.077 294.432 298.645 295.25C298.213 296.057 297.997 297 297.997 298.08V314H291.827ZM346.496 314.511C343.871 314.511 341.604 313.966 339.695 312.875C337.797 311.773 336.337 310.216 335.314 308.205C334.291 306.182 333.78 303.801 333.78 301.062C333.78 298.369 334.291 296.006 335.314 293.972C336.348 291.926 337.791 290.335 339.643 289.199C341.496 288.051 343.672 287.477 346.172 287.477C347.786 287.477 349.308 287.739 350.74 288.261C352.183 288.773 353.456 289.568 354.558 290.648C355.672 291.727 356.547 293.102 357.183 294.773C357.82 296.432 358.138 298.409 358.138 300.705V302.597H336.678V298.438H352.223C352.212 297.256 351.956 296.205 351.456 295.284C350.956 294.352 350.257 293.619 349.359 293.085C348.473 292.551 347.439 292.284 346.257 292.284C344.996 292.284 343.888 292.591 342.933 293.205C341.979 293.807 341.234 294.602 340.7 295.591C340.178 296.568 339.911 297.642 339.899 298.812V302.443C339.899 303.966 340.178 305.273 340.734 306.364C341.291 307.443 342.07 308.273 343.07 308.852C344.07 309.42 345.24 309.705 346.581 309.705C347.479 309.705 348.291 309.58 349.018 309.33C349.746 309.068 350.376 308.688 350.911 308.188C351.445 307.688 351.848 307.068 352.121 306.33L357.882 306.977C357.518 308.5 356.825 309.83 355.803 310.966C354.791 312.091 353.496 312.966 351.916 313.591C350.337 314.205 348.53 314.511 346.496 314.511ZM376.432 287.818V292.591H361.381V287.818H376.432ZM365.097 281.545H371.267V306.125C371.267 306.955 371.392 307.591 371.642 308.034C371.903 308.466 372.244 308.761 372.665 308.92C373.085 309.08 373.551 309.159 374.062 309.159C374.449 309.159 374.801 309.131 375.119 309.074C375.449 309.017 375.699 308.966 375.869 308.92L376.909 313.744C376.58 313.858 376.108 313.983 375.494 314.119C374.892 314.256 374.153 314.335 373.278 314.358C371.733 314.403 370.341 314.17 369.102 313.659C367.864 313.136 366.881 312.33 366.153 311.239C365.438 310.148 365.085 308.784 365.097 307.148V281.545ZM385.393 314.375C384.359 314.375 383.473 314.011 382.734 313.284C381.996 312.557 381.632 311.67 381.643 310.625C381.632 309.602 381.996 308.727 382.734 308C383.473 307.273 384.359 306.909 385.393 306.909C386.393 306.909 387.263 307.273 388.001 308C388.751 308.727 389.132 309.602 389.143 310.625C389.132 311.318 388.95 311.949 388.598 312.517C388.257 313.085 387.803 313.54 387.234 313.881C386.678 314.21 386.064 314.375 385.393 314.375Z" fill="white"/>
<path d="M61.7614 388V373.455H63.5227V386.438H70.2841V388H61.7614ZM77.2159 388.227C76.2311 388.227 75.367 387.993 74.6236 387.524C73.8849 387.055 73.3073 386.4 72.8906 385.557C72.4787 384.714 72.2727 383.729 72.2727 382.602C72.2727 381.466 72.4787 380.474 72.8906 379.626C73.3073 378.779 73.8849 378.121 74.6236 377.652C75.367 377.183 76.2311 376.949 77.2159 376.949C78.2008 376.949 79.0625 377.183 79.8011 377.652C80.5445 378.121 81.1222 378.779 81.5341 379.626C81.9508 380.474 82.1591 381.466 82.1591 382.602C82.1591 383.729 81.9508 384.714 81.5341 385.557C81.1222 386.4 80.5445 387.055 79.8011 387.524C79.0625 387.993 78.2008 388.227 77.2159 388.227ZM77.2159 386.722C77.964 386.722 78.5795 386.53 79.0625 386.146C79.5455 385.763 79.9029 385.259 80.1349 384.634C80.367 384.009 80.483 383.331 80.483 382.602C80.483 381.873 80.367 381.194 80.1349 380.564C79.9029 379.934 79.5455 379.425 79.0625 379.037C78.5795 378.649 77.964 378.455 77.2159 378.455C76.4678 378.455 75.8523 378.649 75.3693 379.037C74.8864 379.425 74.5289 379.934 74.2969 380.564C74.0649 381.194 73.9489 381.873 73.9489 382.602C73.9489 383.331 74.0649 384.009 74.2969 384.634C74.5289 385.259 74.8864 385.763 75.3693 386.146C75.8523 386.53 76.4678 386.722 77.2159 386.722ZM84.7177 388V377.091H86.337V378.739H86.4506C86.6495 378.199 87.0094 377.761 87.5302 377.425C88.051 377.089 88.6381 376.92 89.2915 376.92C89.4147 376.92 89.5685 376.923 89.7532 376.928C89.9379 376.932 90.0775 376.939 90.1722 376.949V378.653C90.1154 378.639 89.9852 378.618 89.7816 378.589C89.5827 378.556 89.372 378.54 89.1495 378.54C88.6192 378.54 88.1457 378.651 87.729 378.874C87.3171 379.091 86.9904 379.394 86.7489 379.783C86.5122 380.166 86.3938 380.604 86.3938 381.097V388H84.7177ZM96.4009 388.227C95.3498 388.227 94.4431 387.995 93.6808 387.531C92.9232 387.062 92.3384 386.409 91.9265 385.571C91.5193 384.728 91.3157 383.748 91.3157 382.631C91.3157 381.513 91.5193 380.528 91.9265 379.676C92.3384 378.819 92.9113 378.152 93.6452 377.673C94.3839 377.19 95.2456 376.949 96.2305 376.949C96.7987 376.949 97.3597 377.044 97.9137 377.233C98.4677 377.422 98.9719 377.73 99.4265 378.156C99.881 378.578 100.243 379.136 100.513 379.832C100.783 380.528 100.918 381.385 100.918 382.403V383.114H92.5089V381.665H99.2134C99.2134 381.049 99.0903 380.5 98.8441 380.017C98.6026 379.534 98.257 379.153 97.8072 378.874C97.3621 378.594 96.8365 378.455 96.2305 378.455C95.5629 378.455 94.9852 378.62 94.4975 378.952C94.0146 379.278 93.6429 379.705 93.3825 380.23C93.122 380.756 92.9918 381.319 92.9918 381.92V382.886C92.9918 383.71 93.1339 384.409 93.418 384.982C93.7068 385.55 94.1069 385.983 94.6183 386.281C95.1296 386.575 95.7238 386.722 96.4009 386.722C96.8413 386.722 97.239 386.66 97.5941 386.537C97.954 386.409 98.2641 386.22 98.5245 385.969C98.7849 385.713 98.9862 385.396 99.1282 385.017L100.748 385.472C100.577 386.021 100.291 386.504 99.8881 386.92C99.4857 387.332 98.9885 387.654 98.3967 387.886C97.8048 388.114 97.1396 388.227 96.4009 388.227ZM103.468 388V377.091H105.087V378.795H105.229C105.456 378.213 105.823 377.761 106.33 377.439C106.837 377.112 107.445 376.949 108.155 376.949C108.875 376.949 109.474 377.112 109.952 377.439C110.435 377.761 110.811 378.213 111.081 378.795H111.195C111.474 378.232 111.893 377.785 112.452 377.453C113.011 377.117 113.681 376.949 114.462 376.949C115.437 376.949 116.235 377.254 116.855 377.865C117.476 378.471 117.786 379.416 117.786 380.699V388H116.11V380.699C116.11 379.894 115.89 379.319 115.449 378.973C115.009 378.627 114.49 378.455 113.894 378.455C113.127 378.455 112.533 378.687 112.111 379.151C111.69 379.61 111.479 380.192 111.479 380.898V388H109.775V380.528C109.775 379.908 109.573 379.409 109.171 379.03C108.768 378.646 108.25 378.455 107.615 378.455C107.18 378.455 106.773 378.571 106.394 378.803C106.02 379.035 105.717 379.357 105.485 379.768C105.257 380.176 105.144 380.647 105.144 381.182V388H103.468ZM126.475 388V377.091H128.152V388H126.475ZM127.328 375.273C127.001 375.273 126.719 375.161 126.483 374.939C126.251 374.716 126.135 374.449 126.135 374.136C126.135 373.824 126.251 373.556 126.483 373.334C126.719 373.111 127.001 373 127.328 373C127.654 373 127.934 373.111 128.166 373.334C128.403 373.556 128.521 373.824 128.521 374.136C128.521 374.449 128.403 374.716 128.166 374.939C127.934 375.161 127.654 375.273 127.328 375.273ZM131.222 392.091V377.091H132.841V378.824H133.04C133.163 378.634 133.333 378.393 133.551 378.099C133.774 377.801 134.091 377.536 134.503 377.304C134.92 377.067 135.483 376.949 136.193 376.949C137.112 376.949 137.921 377.179 138.622 377.638C139.323 378.097 139.87 378.748 140.263 379.591C140.656 380.434 140.852 381.428 140.852 382.574C140.852 383.729 140.656 384.731 140.263 385.578C139.87 386.421 139.325 387.074 138.629 387.538C137.933 387.998 137.131 388.227 136.222 388.227C135.521 388.227 134.96 388.111 134.538 387.879C134.117 387.643 133.793 387.375 133.565 387.077C133.338 386.774 133.163 386.523 133.04 386.324H132.898V392.091H131.222ZM132.869 382.545C132.869 383.369 132.99 384.096 133.232 384.726C133.473 385.351 133.826 385.841 134.29 386.196C134.754 386.546 135.322 386.722 135.994 386.722C136.695 386.722 137.28 386.537 137.749 386.168C138.222 385.794 138.577 385.292 138.814 384.662C139.055 384.027 139.176 383.322 139.176 382.545C139.176 381.778 139.058 381.087 138.821 380.472C138.589 379.851 138.236 379.361 137.763 379.001C137.294 378.637 136.705 378.455 135.994 378.455C135.313 378.455 134.74 378.627 134.276 378.973C133.812 379.314 133.461 379.792 133.224 380.408C132.988 381.018 132.869 381.731 132.869 382.545ZM151.136 379.534L149.631 379.96C149.536 379.709 149.396 379.465 149.212 379.229C149.032 378.987 148.786 378.788 148.473 378.632C148.161 378.476 147.76 378.398 147.273 378.398C146.605 378.398 146.049 378.552 145.604 378.859C145.163 379.162 144.943 379.548 144.943 380.017C144.943 380.434 145.095 380.763 145.398 381.004C145.701 381.246 146.174 381.447 146.818 381.608L148.438 382.006C149.413 382.242 150.14 382.605 150.618 383.092C151.096 383.575 151.335 384.198 151.335 384.96C151.335 385.585 151.155 386.144 150.795 386.636C150.44 387.129 149.943 387.517 149.304 387.801C148.665 388.085 147.921 388.227 147.074 388.227C145.961 388.227 145.04 387.986 144.311 387.503C143.582 387.02 143.12 386.314 142.926 385.386L144.517 384.989C144.669 385.576 144.955 386.016 145.376 386.31C145.803 386.603 146.359 386.75 147.045 386.75C147.827 386.75 148.447 386.584 148.906 386.253C149.37 385.917 149.602 385.514 149.602 385.045C149.602 384.667 149.47 384.349 149.205 384.094C148.939 383.833 148.532 383.639 147.983 383.511L146.165 383.085C145.166 382.848 144.432 382.482 143.963 381.984C143.499 381.482 143.267 380.855 143.267 380.102C143.267 379.487 143.44 378.942 143.786 378.469C144.136 377.995 144.612 377.624 145.213 377.354C145.819 377.084 146.506 376.949 147.273 376.949C148.352 376.949 149.2 377.186 149.815 377.659C150.436 378.133 150.876 378.758 151.136 379.534ZM160.733 383.54V377.091H162.409V388H160.733V386.153H160.62C160.364 386.707 159.966 387.179 159.426 387.567C158.887 387.95 158.205 388.142 157.381 388.142C156.699 388.142 156.093 387.993 155.563 387.695C155.033 387.392 154.616 386.937 154.313 386.331C154.01 385.72 153.858 384.951 153.858 384.023V377.091H155.534V383.909C155.534 384.705 155.757 385.339 156.202 385.812C156.652 386.286 157.225 386.523 157.921 386.523C158.337 386.523 158.761 386.416 159.192 386.203C159.628 385.99 159.992 385.663 160.286 385.223C160.584 384.783 160.733 384.222 160.733 383.54ZM165.479 388V377.091H167.099V378.795H167.241C167.468 378.213 167.835 377.761 168.342 377.439C168.848 377.112 169.457 376.949 170.167 376.949C170.887 376.949 171.486 377.112 171.964 377.439C172.447 377.761 172.823 378.213 173.093 378.795H173.207C173.486 378.232 173.905 377.785 174.464 377.453C175.022 377.117 175.692 376.949 176.474 376.949C177.449 376.949 178.247 377.254 178.867 377.865C179.487 378.471 179.798 379.416 179.798 380.699V388H178.121V380.699C178.121 379.894 177.901 379.319 177.461 378.973C177.021 378.627 176.502 378.455 175.906 378.455C175.138 378.455 174.544 378.687 174.123 379.151C173.701 379.61 173.491 380.192 173.491 380.898V388H171.786V380.528C171.786 379.908 171.585 379.409 171.183 379.03C170.78 378.646 170.262 378.455 169.627 378.455C169.192 378.455 168.784 378.571 168.406 378.803C168.031 379.035 167.728 379.357 167.496 379.768C167.269 380.176 167.156 380.647 167.156 381.182V388H165.479ZM192.607 388.227C191.697 388.227 190.895 387.998 190.199 387.538C189.503 387.074 188.958 386.421 188.565 385.578C188.172 384.731 187.976 383.729 187.976 382.574C187.976 381.428 188.172 380.434 188.565 379.591C188.958 378.748 189.505 378.097 190.206 377.638C190.907 377.179 191.716 376.949 192.635 376.949C193.345 376.949 193.906 377.067 194.318 377.304C194.735 377.536 195.052 377.801 195.27 378.099C195.492 378.393 195.665 378.634 195.788 378.824H195.93V373.455H197.607V388H195.987V386.324H195.788C195.665 386.523 195.49 386.774 195.263 387.077C195.036 387.375 194.711 387.643 194.29 387.879C193.868 388.111 193.307 388.227 192.607 388.227ZM192.834 386.722C193.506 386.722 194.074 386.546 194.538 386.196C195.002 385.841 195.355 385.351 195.597 384.726C195.838 384.096 195.959 383.369 195.959 382.545C195.959 381.731 195.84 381.018 195.604 380.408C195.367 379.792 195.017 379.314 194.553 378.973C194.089 378.627 193.516 378.455 192.834 378.455C192.124 378.455 191.532 378.637 191.058 379.001C190.589 379.361 190.237 379.851 190 380.472C189.768 381.087 189.652 381.778 189.652 382.545C189.652 383.322 189.77 384.027 190.007 384.662C190.249 385.292 190.604 385.794 191.072 386.168C191.546 386.537 192.133 386.722 192.834 386.722ZM205.341 388.227C204.356 388.227 203.492 387.993 202.749 387.524C202.01 387.055 201.432 386.4 201.016 385.557C200.604 384.714 200.398 383.729 200.398 382.602C200.398 381.466 200.604 380.474 201.016 379.626C201.432 378.779 202.01 378.121 202.749 377.652C203.492 377.183 204.356 376.949 205.341 376.949C206.326 376.949 207.188 377.183 207.926 377.652C208.67 378.121 209.247 378.779 209.659 379.626C210.076 380.474 210.284 381.466 210.284 382.602C210.284 383.729 210.076 384.714 209.659 385.557C209.247 386.4 208.67 387.055 207.926 387.524C207.188 387.993 206.326 388.227 205.341 388.227ZM205.341 386.722C206.089 386.722 206.705 386.53 207.188 386.146C207.67 385.763 208.028 385.259 208.26 384.634C208.492 384.009 208.608 383.331 208.608 382.602C208.608 381.873 208.492 381.194 208.26 380.564C208.028 379.934 207.67 379.425 207.188 379.037C206.705 378.649 206.089 378.455 205.341 378.455C204.593 378.455 203.977 378.649 203.494 379.037C203.011 379.425 202.654 379.934 202.422 380.564C202.19 381.194 202.074 381.873 202.074 382.602C202.074 383.331 202.19 384.009 202.422 384.634C202.654 385.259 203.011 385.763 203.494 386.146C203.977 386.53 204.593 386.722 205.341 386.722ZM214.519 373.455V388H212.843V373.455H214.519ZM222.021 388.227C221.036 388.227 220.172 387.993 219.428 387.524C218.69 387.055 218.112 386.4 217.695 385.557C217.283 384.714 217.077 383.729 217.077 382.602C217.077 381.466 217.283 380.474 217.695 379.626C218.112 378.779 218.69 378.121 219.428 377.652C220.172 377.183 221.036 376.949 222.021 376.949C223.005 376.949 223.867 377.183 224.606 377.652C225.349 378.121 225.927 378.779 226.339 379.626C226.755 380.474 226.964 381.466 226.964 382.602C226.964 383.729 226.755 384.714 226.339 385.557C225.927 386.4 225.349 387.055 224.606 387.524C223.867 387.993 223.005 388.227 222.021 388.227ZM222.021 386.722C222.769 386.722 223.384 386.53 223.867 386.146C224.35 385.763 224.708 385.259 224.94 384.634C225.172 384.009 225.288 383.331 225.288 382.602C225.288 381.873 225.172 381.194 224.94 380.564C224.708 379.934 224.35 379.425 223.867 379.037C223.384 378.649 222.769 378.455 222.021 378.455C221.272 378.455 220.657 378.649 220.174 379.037C219.691 379.425 219.334 379.934 219.102 380.564C218.87 381.194 218.754 381.873 218.754 382.602C218.754 383.331 218.87 384.009 219.102 384.634C219.334 385.259 219.691 385.763 220.174 386.146C220.657 386.53 221.272 386.722 222.021 386.722ZM229.522 388V377.091H231.142V378.739H231.255C231.454 378.199 231.814 377.761 232.335 377.425C232.856 377.089 233.443 376.92 234.096 376.92C234.219 376.92 234.373 376.923 234.558 376.928C234.743 376.932 234.882 376.939 234.977 376.949V378.653C234.92 378.639 234.79 378.618 234.586 378.589C234.387 378.556 234.177 378.54 233.954 378.54C233.424 378.54 232.95 378.651 232.534 378.874C232.122 379.091 231.795 379.394 231.554 379.783C231.317 380.166 231.199 380.604 231.199 381.097V388H229.522ZM250.316 379.534L248.81 379.96C248.716 379.709 248.576 379.465 248.391 379.229C248.211 378.987 247.965 378.788 247.653 378.632C247.34 378.476 246.94 378.398 246.452 378.398C245.785 378.398 245.228 378.552 244.783 378.859C244.343 379.162 244.123 379.548 244.123 380.017C244.123 380.434 244.274 380.763 244.577 381.004C244.88 381.246 245.354 381.447 245.998 381.608L247.617 382.006C248.593 382.242 249.319 382.605 249.798 383.092C250.276 383.575 250.515 384.198 250.515 384.96C250.515 385.585 250.335 386.144 249.975 386.636C249.62 387.129 249.123 387.517 248.484 387.801C247.844 388.085 247.101 388.227 246.254 388.227C245.141 388.227 244.22 387.986 243.491 387.503C242.762 387.02 242.3 386.314 242.106 385.386L243.697 384.989C243.848 385.576 244.135 386.016 244.556 386.31C244.982 386.603 245.539 386.75 246.225 386.75C247.006 386.75 247.627 386.584 248.086 386.253C248.55 385.917 248.782 385.514 248.782 385.045C248.782 384.667 248.649 384.349 248.384 384.094C248.119 383.833 247.712 383.639 247.163 383.511L245.344 383.085C244.345 382.848 243.612 382.482 243.143 381.984C242.679 381.482 242.447 380.855 242.447 380.102C242.447 379.487 242.62 378.942 242.965 378.469C243.316 377.995 243.791 377.624 244.393 377.354C244.999 377.084 245.685 376.949 246.452 376.949C247.532 376.949 248.379 377.186 248.995 377.659C249.615 378.133 250.056 378.758 250.316 379.534ZM253.038 388V377.091H254.714V388H253.038ZM253.89 375.273C253.564 375.273 253.282 375.161 253.045 374.939C252.813 374.716 252.697 374.449 252.697 374.136C252.697 373.824 252.813 373.556 253.045 373.334C253.282 373.111 253.564 373 253.89 373C254.217 373 254.496 373.111 254.728 373.334C254.965 373.556 255.083 373.824 255.083 374.136C255.083 374.449 254.965 374.716 254.728 374.939C254.496 375.161 254.217 375.273 253.89 375.273ZM262.528 377.091V378.511H256.875V377.091H262.528ZM258.523 374.477H260.199V384.875C260.199 385.348 260.268 385.704 260.405 385.94C260.547 386.172 260.727 386.329 260.945 386.409C261.167 386.485 261.402 386.523 261.648 386.523C261.832 386.523 261.984 386.513 262.102 386.494C262.221 386.471 262.315 386.452 262.386 386.438L262.727 387.943C262.614 387.986 262.455 388.028 262.251 388.071C262.048 388.118 261.79 388.142 261.477 388.142C261.004 388.142 260.54 388.04 260.085 387.837C259.635 387.633 259.261 387.323 258.963 386.906C258.67 386.49 258.523 385.964 258.523 385.33V374.477ZM273.885 388.256C273.194 388.256 272.566 388.125 272.003 387.865C271.439 387.6 270.992 387.219 270.661 386.722C270.329 386.22 270.163 385.614 270.163 384.903C270.163 384.278 270.286 383.772 270.533 383.384C270.779 382.991 271.108 382.683 271.52 382.46C271.932 382.238 272.386 382.072 272.884 381.963C273.385 381.849 273.89 381.759 274.396 381.693C275.059 381.608 275.597 381.544 276.009 381.501C276.425 381.454 276.728 381.376 276.918 381.267C277.112 381.158 277.209 380.969 277.209 380.699V380.642C277.209 379.941 277.017 379.397 276.634 379.009C276.255 378.62 275.679 378.426 274.908 378.426C274.107 378.426 273.48 378.601 273.026 378.952C272.571 379.302 272.251 379.676 272.067 380.074L270.476 379.506C270.76 378.843 271.139 378.327 271.612 377.957C272.09 377.583 272.611 377.323 273.175 377.176C273.743 377.025 274.302 376.949 274.851 376.949C275.201 376.949 275.604 376.991 276.058 377.077C276.518 377.157 276.96 377.325 277.386 377.581C277.817 377.837 278.175 378.223 278.459 378.739C278.743 379.255 278.885 379.946 278.885 380.812V388H277.209V386.523H277.124C277.01 386.759 276.821 387.013 276.555 387.283C276.29 387.553 275.938 387.782 275.497 387.972C275.057 388.161 274.519 388.256 273.885 388.256ZM274.141 386.75C274.804 386.75 275.362 386.62 275.817 386.359C276.276 386.099 276.622 385.763 276.854 385.351C277.09 384.939 277.209 384.506 277.209 384.051V382.517C277.138 382.602 276.982 382.68 276.74 382.751C276.503 382.818 276.229 382.877 275.916 382.929C275.608 382.976 275.308 383.019 275.014 383.057C274.725 383.09 274.491 383.118 274.311 383.142C273.875 383.199 273.468 383.291 273.089 383.419C272.715 383.542 272.412 383.729 272.18 383.98C271.953 384.226 271.839 384.562 271.839 384.989C271.839 385.571 272.055 386.011 272.486 386.31C272.921 386.603 273.473 386.75 274.141 386.75ZM281.944 388V377.091H283.564V378.795H283.706C283.933 378.213 284.3 377.761 284.806 377.439C285.313 377.112 285.922 376.949 286.632 376.949C287.351 376.949 287.95 377.112 288.429 377.439C288.912 377.761 289.288 378.213 289.558 378.795H289.672C289.951 378.232 290.37 377.785 290.929 377.453C291.487 377.117 292.157 376.949 292.939 376.949C293.914 376.949 294.712 377.254 295.332 377.865C295.952 378.471 296.262 379.416 296.262 380.699V388H294.586V380.699C294.586 379.894 294.366 379.319 293.926 378.973C293.485 378.627 292.967 378.455 292.37 378.455C291.603 378.455 291.009 378.687 290.588 379.151C290.166 379.61 289.956 380.192 289.956 380.898V388H288.251V380.528C288.251 379.908 288.05 379.409 287.647 379.03C287.245 378.646 286.726 378.455 286.092 378.455C285.656 378.455 285.249 378.571 284.87 378.803C284.496 379.035 284.193 379.357 283.961 379.768C283.734 380.176 283.62 380.647 283.62 381.182V388H281.944ZM303.901 388.227C302.85 388.227 301.943 387.995 301.181 387.531C300.423 387.062 299.838 386.409 299.426 385.571C299.019 384.728 298.816 383.748 298.816 382.631C298.816 381.513 299.019 380.528 299.426 379.676C299.838 378.819 300.411 378.152 301.145 377.673C301.884 377.19 302.746 376.949 303.73 376.949C304.299 376.949 304.86 377.044 305.414 377.233C305.968 377.422 306.472 377.73 306.926 378.156C307.381 378.578 307.743 379.136 308.013 379.832C308.283 380.528 308.418 381.385 308.418 382.403V383.114H300.009V381.665H306.713C306.713 381.049 306.59 380.5 306.344 380.017C306.103 379.534 305.757 379.153 305.307 378.874C304.862 378.594 304.337 378.455 303.73 378.455C303.063 378.455 302.485 378.62 301.998 378.952C301.515 379.278 301.143 379.705 300.882 380.23C300.622 380.756 300.492 381.319 300.492 381.92V382.886C300.492 383.71 300.634 384.409 300.918 384.982C301.207 385.55 301.607 385.983 302.118 386.281C302.63 386.575 303.224 386.722 303.901 386.722C304.341 386.722 304.739 386.66 305.094 386.537C305.454 386.409 305.764 386.22 306.025 385.969C306.285 385.713 306.486 385.396 306.628 385.017L308.248 385.472C308.077 386.021 307.791 386.504 307.388 386.92C306.986 387.332 306.489 387.654 305.897 387.886C305.305 388.114 304.64 388.227 303.901 388.227ZM315.712 377.091V378.511H310.059V377.091H315.712ZM311.706 374.477H313.382V384.875C313.382 385.348 313.451 385.704 313.588 385.94C313.73 386.172 313.91 386.329 314.128 386.409C314.351 386.485 314.585 386.523 314.831 386.523C315.016 386.523 315.167 386.513 315.286 386.494C315.404 386.471 315.499 386.452 315.57 386.438L315.911 387.943C315.797 387.986 315.639 388.028 315.435 388.071C315.231 388.118 314.973 388.142 314.661 388.142C314.187 388.142 313.723 388.04 313.269 387.837C312.819 387.633 312.445 387.323 312.147 386.906C311.853 386.49 311.706 385.964 311.706 385.33V374.477ZM65.9659 418.227C64.9432 418.227 64.0625 417.986 63.3239 417.503C62.5852 417.02 62.017 416.355 61.6193 415.507C61.2216 414.66 61.0227 413.691 61.0227 412.602C61.0227 411.494 61.2263 410.517 61.6335 409.669C62.0455 408.817 62.6184 408.152 63.3523 407.673C64.0909 407.19 64.9527 406.949 65.9375 406.949C66.7045 406.949 67.3958 407.091 68.0114 407.375C68.6269 407.659 69.1312 408.057 69.5241 408.568C69.9171 409.08 70.161 409.676 70.2557 410.358H68.5795C68.4517 409.861 68.1676 409.42 67.7273 409.037C67.2917 408.649 66.7045 408.455 65.9659 408.455C65.3125 408.455 64.7396 408.625 64.2472 408.966C63.7595 409.302 63.3783 409.778 63.1037 410.393C62.8338 411.004 62.6989 411.722 62.6989 412.545C62.6989 413.388 62.8314 414.122 63.0966 414.747C63.3665 415.372 63.7453 415.857 64.233 416.203C64.7254 416.549 65.303 416.722 65.9659 416.722C66.4015 416.722 66.7969 416.646 67.152 416.494C67.5071 416.343 67.8078 416.125 68.054 415.841C68.3002 415.557 68.4754 415.216 68.5795 414.818H70.2557C70.161 415.462 69.9266 416.042 69.5526 416.558C69.1832 417.07 68.6932 417.477 68.0824 417.78C67.4763 418.078 66.7708 418.227 65.9659 418.227ZM77.1378 418.227C76.1529 418.227 75.2888 417.993 74.5455 417.524C73.8068 417.055 73.2292 416.4 72.8125 415.557C72.4006 414.714 72.1946 413.729 72.1946 412.602C72.1946 411.466 72.4006 410.474 72.8125 409.626C73.2292 408.779 73.8068 408.121 74.5455 407.652C75.2888 407.183 76.1529 406.949 77.1378 406.949C78.1226 406.949 78.9844 407.183 79.723 407.652C80.4664 408.121 81.044 408.779 81.456 409.626C81.8726 410.474 82.081 411.466 82.081 412.602C82.081 413.729 81.8726 414.714 81.456 415.557C81.044 416.4 80.4664 417.055 79.723 417.524C78.9844 417.993 78.1226 418.227 77.1378 418.227ZM77.1378 416.722C77.8859 416.722 78.5014 416.53 78.9844 416.146C79.4673 415.763 79.8248 415.259 80.0568 414.634C80.2888 414.009 80.4048 413.331 80.4048 412.602C80.4048 411.873 80.2888 411.194 80.0568 410.564C79.8248 409.934 79.4673 409.425 78.9844 409.037C78.5014 408.649 77.8859 408.455 77.1378 408.455C76.3897 408.455 75.7741 408.649 75.2912 409.037C74.8082 409.425 74.4508 409.934 74.2188 410.564C73.9867 411.194 73.8707 411.873 73.8707 412.602C73.8707 413.331 73.9867 414.009 74.2188 414.634C74.4508 415.259 74.8082 415.763 75.2912 416.146C75.7741 416.53 76.3897 416.722 77.1378 416.722ZM86.3157 411.438V418H84.6396V407.091H86.2589V408.795H86.4009C86.6566 408.241 87.0449 407.796 87.5657 407.46C88.0865 407.119 88.7589 406.949 89.5827 406.949C90.3214 406.949 90.9677 407.1 91.5217 407.403C92.0756 407.702 92.5065 408.156 92.8143 408.767C93.122 409.373 93.2759 410.14 93.2759 411.068V418H91.5998V411.182C91.5998 410.325 91.3772 409.657 90.9322 409.179C90.4871 408.696 89.8763 408.455 89.0998 408.455C88.5647 408.455 88.0865 408.571 87.6651 408.803C87.2485 409.035 86.9194 409.373 86.6779 409.818C86.4364 410.263 86.3157 410.803 86.3157 411.438ZM104.066 409.534L102.56 409.96C102.466 409.709 102.326 409.465 102.141 409.229C101.961 408.987 101.715 408.788 101.403 408.632C101.09 408.476 100.69 408.398 100.202 408.398C99.5348 408.398 98.9785 408.552 98.5334 408.859C98.093 409.162 97.8729 409.548 97.8729 410.017C97.8729 410.434 98.0244 410.763 98.3274 411.004C98.6304 411.246 99.1039 411.447 99.7479 411.608L101.367 412.006C102.343 412.242 103.069 412.605 103.548 413.092C104.026 413.575 104.265 414.198 104.265 414.96C104.265 415.585 104.085 416.144 103.725 416.636C103.37 417.129 102.873 417.517 102.234 417.801C101.594 418.085 100.851 418.227 100.004 418.227C98.8909 418.227 97.9699 417.986 97.2408 417.503C96.5116 417.02 96.05 416.314 95.8558 415.386L97.4467 414.989C97.5982 415.576 97.8847 416.016 98.3061 416.31C98.7322 416.603 99.2886 416.75 99.9751 416.75C100.756 416.75 101.377 416.584 101.836 416.253C102.3 415.917 102.532 415.514 102.532 415.045C102.532 414.667 102.399 414.349 102.134 414.094C101.869 413.833 101.462 413.639 100.913 413.511L99.0945 413.085C98.0954 412.848 97.3615 412.482 96.8928 411.984C96.4287 411.482 96.1967 410.855 96.1967 410.102C96.1967 409.487 96.3696 408.942 96.7152 408.469C97.0656 407.995 97.5414 407.624 98.1428 407.354C98.7488 407.084 99.4354 406.949 100.202 406.949C101.282 406.949 102.129 407.186 102.745 407.659C103.365 408.133 103.806 408.758 104.066 409.534ZM111.362 418.227C110.311 418.227 109.404 417.995 108.642 417.531C107.884 417.062 107.299 416.409 106.887 415.571C106.48 414.728 106.277 413.748 106.277 412.631C106.277 411.513 106.48 410.528 106.887 409.676C107.299 408.819 107.872 408.152 108.606 407.673C109.345 407.19 110.207 406.949 111.191 406.949C111.76 406.949 112.321 407.044 112.875 407.233C113.429 407.422 113.933 407.73 114.387 408.156C114.842 408.578 115.204 409.136 115.474 409.832C115.744 410.528 115.879 411.385 115.879 412.403V413.114H107.47V411.665H114.174C114.174 411.049 114.051 410.5 113.805 410.017C113.564 409.534 113.218 409.153 112.768 408.874C112.323 408.594 111.797 408.455 111.191 408.455C110.524 408.455 109.946 408.62 109.458 408.952C108.975 409.278 108.604 409.705 108.343 410.23C108.083 410.756 107.953 411.319 107.953 411.92V412.886C107.953 413.71 108.095 414.409 108.379 414.982C108.668 415.55 109.068 415.983 109.579 416.281C110.091 416.575 110.685 416.722 111.362 416.722C111.802 416.722 112.2 416.66 112.555 416.537C112.915 416.409 113.225 416.22 113.485 415.969C113.746 415.713 113.947 415.396 114.089 415.017L115.708 415.472C115.538 416.021 115.252 416.504 114.849 416.92C114.447 417.332 113.949 417.654 113.358 417.886C112.766 418.114 112.1 418.227 111.362 418.227ZM122.86 418.227C121.838 418.227 120.957 417.986 120.218 417.503C119.48 417.02 118.912 416.355 118.514 415.507C118.116 414.66 117.917 413.691 117.917 412.602C117.917 411.494 118.121 410.517 118.528 409.669C118.94 408.817 119.513 408.152 120.247 407.673C120.985 407.19 121.847 406.949 122.832 406.949C123.599 406.949 124.29 407.091 124.906 407.375C125.521 407.659 126.026 408.057 126.419 408.568C126.812 409.08 127.056 409.676 127.15 410.358H125.474C125.346 409.861 125.062 409.42 124.622 409.037C124.186 408.649 123.599 408.455 122.86 408.455C122.207 408.455 121.634 408.625 121.142 408.966C120.654 409.302 120.273 409.778 119.998 410.393C119.728 411.004 119.593 411.722 119.593 412.545C119.593 413.388 119.726 414.122 119.991 414.747C120.261 415.372 120.64 415.857 121.127 416.203C121.62 416.549 122.198 416.722 122.86 416.722C123.296 416.722 123.691 416.646 124.047 416.494C124.402 416.343 124.702 416.125 124.949 415.841C125.195 415.557 125.37 415.216 125.474 414.818H127.15C127.056 415.462 126.821 416.042 126.447 416.558C126.078 417.07 125.588 417.477 124.977 417.78C124.371 418.078 123.665 418.227 122.86 418.227ZM134.345 407.091V408.511H128.691V407.091H134.345ZM130.339 404.477H132.015V414.875C132.015 415.348 132.084 415.704 132.221 415.94C132.363 416.172 132.543 416.329 132.761 416.409C132.984 416.485 133.218 416.523 133.464 416.523C133.649 416.523 133.8 416.513 133.919 416.494C134.037 416.471 134.132 416.452 134.203 416.438L134.544 417.943C134.43 417.986 134.271 418.028 134.068 418.071C133.864 418.118 133.606 418.142 133.294 418.142C132.82 418.142 132.356 418.04 131.902 417.837C131.452 417.633 131.078 417.323 130.779 416.906C130.486 416.49 130.339 415.964 130.339 415.33V404.477ZM141.323 418.227C140.272 418.227 139.365 417.995 138.603 417.531C137.845 417.062 137.26 416.409 136.848 415.571C136.441 414.728 136.238 413.748 136.238 412.631C136.238 411.513 136.441 410.528 136.848 409.676C137.26 408.819 137.833 408.152 138.567 407.673C139.306 407.19 140.167 406.949 141.152 406.949C141.721 406.949 142.282 407.044 142.836 407.233C143.39 407.422 143.894 407.73 144.348 408.156C144.803 408.578 145.165 409.136 145.435 409.832C145.705 410.528 145.84 411.385 145.84 412.403V413.114H137.431V411.665H144.135C144.135 411.049 144.012 410.5 143.766 410.017C143.525 409.534 143.179 409.153 142.729 408.874C142.284 408.594 141.758 408.455 141.152 408.455C140.485 408.455 139.907 408.62 139.419 408.952C138.936 409.278 138.565 409.705 138.304 410.23C138.044 410.756 137.914 411.319 137.914 411.92V412.886C137.914 413.71 138.056 414.409 138.34 414.982C138.629 415.55 139.029 415.983 139.54 416.281C140.051 416.575 140.646 416.722 141.323 416.722C141.763 416.722 142.161 416.66 142.516 416.537C142.876 416.409 143.186 416.22 143.446 415.969C143.707 415.713 143.908 415.396 144.05 415.017L145.669 415.472C145.499 416.021 145.212 416.504 144.81 416.92C144.408 417.332 143.91 417.654 143.319 417.886C142.727 418.114 142.061 418.227 141.323 418.227ZM153.134 407.091V408.511H147.48V407.091H153.134ZM149.128 404.477H150.804V414.875C150.804 415.348 150.873 415.704 151.01 415.94C151.152 416.172 151.332 416.329 151.55 416.409C151.773 416.485 152.007 416.523 152.253 416.523C152.438 416.523 152.589 416.513 152.708 416.494C152.826 416.471 152.921 416.452 152.992 416.438L153.333 417.943C153.219 417.986 153.06 418.028 152.857 418.071C152.653 418.118 152.395 418.142 152.083 418.142C151.609 418.142 151.145 418.04 150.691 417.837C150.241 417.633 149.867 417.323 149.569 416.906C149.275 416.49 149.128 415.964 149.128 415.33V404.477ZM162.53 413.54V407.091H164.206V418H162.53V416.153H162.417C162.161 416.707 161.763 417.179 161.223 417.567C160.684 417.95 160.002 418.142 159.178 418.142C158.496 418.142 157.89 417.993 157.36 417.695C156.829 417.392 156.413 416.937 156.11 416.331C155.807 415.72 155.655 414.951 155.655 414.023V407.091H157.331V413.909C157.331 414.705 157.554 415.339 157.999 415.812C158.449 416.286 159.022 416.523 159.718 416.523C160.134 416.523 160.558 416.416 160.989 416.203C161.425 415.99 161.789 415.663 162.083 415.223C162.381 414.783 162.53 414.222 162.53 413.54ZM167.276 418V407.091H168.896V408.739H169.009C169.208 408.199 169.568 407.761 170.089 407.425C170.61 407.089 171.197 406.92 171.85 406.92C171.973 406.92 172.127 406.923 172.312 406.928C172.496 406.932 172.636 406.939 172.731 406.949V408.653C172.674 408.639 172.544 408.618 172.34 408.589C172.141 408.556 171.931 408.54 171.708 408.54C171.178 408.54 170.704 408.651 170.288 408.874C169.876 409.091 169.549 409.394 169.308 409.783C169.071 410.166 168.952 410.604 168.952 411.097V418H167.276ZM174.689 418.114C174.339 418.114 174.038 417.988 173.787 417.737C173.536 417.486 173.411 417.186 173.411 416.835C173.411 416.485 173.536 416.184 173.787 415.933C174.038 415.682 174.339 415.557 174.689 415.557C175.04 415.557 175.34 415.682 175.591 415.933C175.842 416.184 175.968 416.485 175.968 416.835C175.968 417.067 175.908 417.28 175.79 417.474C175.676 417.669 175.523 417.825 175.328 417.943C175.139 418.057 174.926 418.114 174.689 418.114ZM184.828 418V403.455H189.743C190.884 403.455 191.816 403.661 192.541 404.072C193.27 404.48 193.81 405.031 194.16 405.727C194.511 406.423 194.686 407.2 194.686 408.057C194.686 408.914 194.511 409.693 194.16 410.393C193.815 411.094 193.279 411.653 192.555 412.07C191.831 412.482 190.903 412.688 189.771 412.688H186.248V411.125H189.714C190.495 411.125 191.123 410.99 191.596 410.72C192.07 410.45 192.413 410.086 192.626 409.626C192.844 409.162 192.953 408.639 192.953 408.057C192.953 407.474 192.844 406.954 192.626 406.494C192.413 406.035 192.067 405.675 191.589 405.415C191.111 405.15 190.476 405.017 189.686 405.017H186.589V418H184.828ZM197.296 418V407.091H198.915V408.739H199.029C199.228 408.199 199.587 407.761 200.108 407.425C200.629 407.089 201.216 406.92 201.87 406.92C201.993 406.92 202.147 406.923 202.331 406.928C202.516 406.932 202.656 406.939 202.75 406.949V408.653C202.694 408.639 202.563 408.618 202.36 408.589C202.161 408.556 201.95 408.54 201.728 408.54C201.197 408.54 200.724 408.651 200.307 408.874C199.895 409.091 199.569 409.394 199.327 409.783C199.09 410.166 198.972 410.604 198.972 411.097V418H197.296ZM208.979 418.227C207.928 418.227 207.021 417.995 206.259 417.531C205.501 417.062 204.917 416.409 204.505 415.571C204.097 414.728 203.894 413.748 203.894 412.631C203.894 411.513 204.097 410.528 204.505 409.676C204.917 408.819 205.489 408.152 206.223 407.673C206.962 407.19 207.824 406.949 208.809 406.949C209.377 406.949 209.938 407.044 210.492 407.233C211.046 407.422 211.55 407.73 212.005 408.156C212.459 408.578 212.821 409.136 213.091 409.832C213.361 410.528 213.496 411.385 213.496 412.403V413.114H205.087V411.665H211.792C211.792 411.049 211.668 410.5 211.422 410.017C211.181 409.534 210.835 409.153 210.385 408.874C209.94 408.594 209.415 408.455 208.809 408.455C208.141 408.455 207.563 408.62 207.076 408.952C206.593 409.278 206.221 409.705 205.961 410.23C205.7 410.756 205.57 411.319 205.57 411.92V412.886C205.57 413.71 205.712 414.409 205.996 414.982C206.285 415.55 206.685 415.983 207.196 416.281C207.708 416.575 208.302 416.722 208.979 416.722C209.419 416.722 209.817 416.66 210.172 416.537C210.532 416.409 210.842 416.22 211.103 415.969C211.363 415.713 211.564 415.396 211.706 415.017L213.326 415.472C213.155 416.021 212.869 416.504 212.466 416.92C212.064 417.332 211.567 417.654 210.975 417.886C210.383 418.114 209.718 418.227 208.979 418.227ZM220.79 407.091V408.511H215.137V407.091H220.79ZM216.784 404.477H218.461V414.875C218.461 415.348 218.529 415.704 218.667 415.94C218.809 416.172 218.989 416.329 219.206 416.409C219.429 416.485 219.663 416.523 219.909 416.523C220.094 416.523 220.246 416.513 220.364 416.494C220.482 416.471 220.577 416.452 220.648 416.438L220.989 417.943C220.875 417.986 220.717 418.028 220.513 418.071C220.31 418.118 220.051 418.142 219.739 418.142C219.266 418.142 218.801 418.04 218.347 417.837C217.897 417.633 217.523 417.323 217.225 416.906C216.931 416.49 216.784 415.964 216.784 415.33V404.477ZM223.311 418V407.091H224.988V418H223.311ZM224.164 405.273C223.837 405.273 223.555 405.161 223.319 404.939C223.087 404.716 222.971 404.449 222.971 404.136C222.971 403.824 223.087 403.556 223.319 403.334C223.555 403.111 223.837 403 224.164 403C224.49 403 224.77 403.111 225.002 403.334C225.239 403.556 225.357 403.824 225.357 404.136C225.357 404.449 225.239 404.716 225.002 404.939C224.77 405.161 224.49 405.273 224.164 405.273ZM234.933 413.54V407.091H236.609V418H234.933V416.153H234.819C234.563 416.707 234.165 417.179 233.626 417.567C233.086 417.95 232.404 418.142 231.58 418.142C230.898 418.142 230.292 417.993 229.762 417.695C229.232 417.392 228.815 416.937 228.512 416.331C228.209 415.72 228.058 414.951 228.058 414.023V407.091H229.734V413.909C229.734 414.705 229.956 415.339 230.401 415.812C230.851 416.286 231.424 416.523 232.12 416.523C232.537 416.523 232.96 416.416 233.391 416.203C233.827 415.99 234.192 415.663 234.485 415.223C234.783 414.783 234.933 414.222 234.933 413.54ZM239.679 418V407.091H241.298V408.795H241.44C241.667 408.213 242.034 407.761 242.541 407.439C243.047 407.112 243.656 406.949 244.366 406.949C245.086 406.949 245.685 407.112 246.163 407.439C246.646 407.761 247.022 408.213 247.292 408.795H247.406C247.685 408.232 248.104 407.785 248.663 407.453C249.222 407.117 249.892 406.949 250.673 406.949C251.648 406.949 252.446 407.254 253.066 407.865C253.687 408.471 253.997 409.416 253.997 410.699V418H252.321V410.699C252.321 409.894 252.1 409.319 251.66 408.973C251.22 408.627 250.701 408.455 250.105 408.455C249.338 408.455 248.743 408.687 248.322 409.151C247.901 409.61 247.69 410.192 247.69 410.898V418H245.985V410.528C245.985 409.908 245.784 409.409 245.382 409.03C244.979 408.646 244.461 408.455 243.826 408.455C243.391 408.455 242.984 408.571 242.605 408.803C242.231 409.035 241.928 409.357 241.696 409.768C241.468 410.176 241.355 410.647 241.355 411.182V418H239.679ZM262.686 418V407.091H264.306V408.795H264.448C264.675 408.213 265.042 407.761 265.549 407.439C266.055 407.112 266.664 406.949 267.374 406.949C268.094 406.949 268.693 407.112 269.171 407.439C269.654 407.761 270.03 408.213 270.3 408.795H270.414C270.693 408.232 271.112 407.785 271.671 407.453C272.23 407.117 272.9 406.949 273.681 406.949C274.656 406.949 275.454 407.254 276.074 407.865C276.694 408.471 277.005 409.416 277.005 410.699V418H275.328V410.699C275.328 409.894 275.108 409.319 274.668 408.973C274.228 408.627 273.709 408.455 273.113 408.455C272.346 408.455 271.751 408.687 271.33 409.151C270.908 409.61 270.698 410.192 270.698 410.898V418H268.993V410.528C268.993 409.908 268.792 409.409 268.39 409.03C267.987 408.646 267.469 408.455 266.834 408.455C266.399 408.455 265.991 408.571 265.613 408.803C265.239 409.035 264.935 409.357 264.703 409.768C264.476 410.176 264.363 410.647 264.363 411.182V418H262.686ZM283.279 418.256C282.588 418.256 281.961 418.125 281.397 417.865C280.834 417.6 280.386 417.219 280.055 416.722C279.724 416.22 279.558 415.614 279.558 414.903C279.558 414.278 279.681 413.772 279.927 413.384C280.173 412.991 280.502 412.683 280.914 412.46C281.326 412.238 281.781 412.072 282.278 411.963C282.78 411.849 283.284 411.759 283.791 411.693C284.454 411.608 284.991 411.544 285.403 411.501C285.82 411.454 286.123 411.376 286.312 411.267C286.506 411.158 286.603 410.969 286.603 410.699V410.642C286.603 409.941 286.412 409.397 286.028 409.009C285.649 408.62 285.074 408.426 284.302 408.426C283.502 408.426 282.875 408.601 282.42 408.952C281.966 409.302 281.646 409.676 281.461 410.074L279.87 409.506C280.154 408.843 280.533 408.327 281.007 407.957C281.485 407.583 282.006 407.323 282.569 407.176C283.137 407.025 283.696 406.949 284.245 406.949C284.596 406.949 284.998 406.991 285.453 407.077C285.912 407.157 286.355 407.325 286.781 407.581C287.212 407.837 287.569 408.223 287.853 408.739C288.137 409.255 288.279 409.946 288.279 410.812V418H286.603V416.523H286.518C286.404 416.759 286.215 417.013 285.95 417.283C285.685 417.553 285.332 417.782 284.892 417.972C284.451 418.161 283.914 418.256 283.279 418.256ZM283.535 416.75C284.198 416.75 284.757 416.62 285.211 416.359C285.671 416.099 286.016 415.763 286.248 415.351C286.485 414.939 286.603 414.506 286.603 414.051V412.517C286.532 412.602 286.376 412.68 286.135 412.751C285.898 412.818 285.623 412.877 285.311 412.929C285.003 412.976 284.702 413.019 284.409 413.057C284.12 413.09 283.886 413.118 283.706 413.142C283.27 413.199 282.863 413.291 282.484 413.419C282.11 413.542 281.807 413.729 281.575 413.98C281.348 414.226 281.234 414.562 281.234 414.989C281.234 415.571 281.449 416.011 281.88 416.31C282.316 416.603 282.868 416.75 283.535 416.75ZM298.214 413.54V407.091H299.89V418H298.214V416.153H298.1C297.844 416.707 297.447 417.179 296.907 417.567C296.367 417.95 295.685 418.142 294.862 418.142C294.18 418.142 293.574 417.993 293.043 417.695C292.513 417.392 292.096 416.937 291.793 416.331C291.49 415.72 291.339 414.951 291.339 414.023V407.091H293.015V413.909C293.015 414.705 293.237 415.339 293.683 415.812C294.132 416.286 294.705 416.523 295.401 416.523C295.818 416.523 296.242 416.416 296.673 416.203C297.108 415.99 297.473 415.663 297.766 415.223C298.065 414.783 298.214 414.222 298.214 413.54ZM302.96 418V407.091H304.579V408.739H304.693C304.892 408.199 305.252 407.761 305.772 407.425C306.293 407.089 306.88 406.92 307.534 406.92C307.657 406.92 307.811 406.923 307.995 406.928C308.18 406.932 308.32 406.939 308.414 406.949V408.653C308.358 408.639 308.227 408.618 308.024 408.589C307.825 408.556 307.614 408.54 307.392 408.54C306.861 408.54 306.388 408.651 305.971 408.874C305.559 409.091 305.233 409.394 304.991 409.783C304.754 410.166 304.636 410.604 304.636 411.097V418H302.96ZM310.401 418V407.091H312.077V418H310.401ZM311.254 405.273C310.927 405.273 310.645 405.161 310.408 404.939C310.176 404.716 310.06 404.449 310.06 404.136C310.06 403.824 310.176 403.556 310.408 403.334C310.645 403.111 310.927 403 311.254 403C311.58 403 311.86 403.111 312.092 403.334C312.328 403.556 312.447 403.824 312.447 404.136C312.447 404.449 312.328 404.716 312.092 404.939C311.86 405.161 311.58 405.273 311.254 405.273ZM322.875 409.534L321.369 409.96C321.274 409.709 321.135 409.465 320.95 409.229C320.77 408.987 320.524 408.788 320.211 408.632C319.899 408.476 319.499 408.398 319.011 408.398C318.343 408.398 317.787 408.552 317.342 408.859C316.902 409.162 316.681 409.548 316.681 410.017C316.681 410.434 316.833 410.763 317.136 411.004C317.439 411.246 317.913 411.447 318.556 411.608L320.176 412.006C321.151 412.242 321.878 412.605 322.356 413.092C322.834 413.575 323.074 414.198 323.074 414.96C323.074 415.585 322.894 416.144 322.534 416.636C322.179 417.129 321.681 417.517 321.042 417.801C320.403 418.085 319.66 418.227 318.812 418.227C317.699 418.227 316.779 417.986 316.049 417.503C315.32 417.02 314.859 416.314 314.664 415.386L316.255 414.989C316.407 415.576 316.693 416.016 317.115 416.31C317.541 416.603 318.097 416.75 318.784 416.75C319.565 416.75 320.185 416.584 320.645 416.253C321.109 415.917 321.341 415.514 321.341 415.045C321.341 414.667 321.208 414.349 320.943 414.094C320.678 413.833 320.27 413.639 319.721 413.511L317.903 413.085C316.904 412.848 316.17 412.482 315.701 411.984C315.237 411.482 315.005 410.855 315.005 410.102C315.005 409.487 315.178 408.942 315.524 408.469C315.874 407.995 316.35 407.624 316.951 407.354C317.557 407.084 318.244 406.949 319.011 406.949C320.091 406.949 320.938 407.186 321.554 407.659C322.174 408.133 322.614 408.758 322.875 409.534ZM338.949 409.534L337.443 409.96C337.348 409.709 337.209 409.465 337.024 409.229C336.844 408.987 336.598 408.788 336.286 408.632C335.973 408.476 335.573 408.398 335.085 408.398C334.418 408.398 333.861 408.552 333.416 408.859C332.976 409.162 332.756 409.548 332.756 410.017C332.756 410.434 332.907 410.763 333.21 411.004C333.513 411.246 333.987 411.447 334.631 411.608L336.25 412.006C337.225 412.242 337.952 412.605 338.43 413.092C338.909 413.575 339.148 414.198 339.148 414.96C339.148 415.585 338.968 416.144 338.608 416.636C338.253 417.129 337.756 417.517 337.116 417.801C336.477 418.085 335.734 418.227 334.886 418.227C333.774 418.227 332.853 417.986 332.124 417.503C331.394 417.02 330.933 416.314 330.739 415.386L332.33 414.989C332.481 415.576 332.768 416.016 333.189 416.31C333.615 416.603 334.171 416.75 334.858 416.75C335.639 416.75 336.259 416.584 336.719 416.253C337.183 415.917 337.415 415.514 337.415 415.045C337.415 414.667 337.282 414.349 337.017 414.094C336.752 413.833 336.345 413.639 335.795 413.511L333.977 413.085C332.978 412.848 332.244 412.482 331.776 411.984C331.312 411.482 331.08 410.855 331.08 410.102C331.08 409.487 331.252 408.942 331.598 408.469C331.948 407.995 332.424 407.624 333.026 407.354C333.632 407.084 334.318 406.949 335.085 406.949C336.165 406.949 337.012 407.186 337.628 407.659C338.248 408.133 338.688 408.758 338.949 409.534ZM341.671 418V407.091H343.347V418H341.671ZM342.523 405.273C342.196 405.273 341.915 405.161 341.678 404.939C341.446 404.716 341.33 404.449 341.33 404.136C341.33 403.824 341.446 403.556 341.678 403.334C341.915 403.111 342.196 403 342.523 403C342.85 403 343.129 403.111 343.361 403.334C343.598 403.556 343.716 403.824 343.716 404.136C343.716 404.449 343.598 404.716 343.361 404.939C343.129 405.161 342.85 405.273 342.523 405.273ZM351.161 407.091V408.511H345.508V407.091H351.161ZM347.156 404.477H348.832V414.875C348.832 415.348 348.9 415.704 349.038 415.94C349.18 416.172 349.36 416.329 349.577 416.409C349.8 416.485 350.034 416.523 350.281 416.523C350.465 416.523 350.617 416.513 350.735 416.494C350.853 416.471 350.948 416.452 351.019 416.438L351.36 417.943C351.246 417.986 351.088 418.028 350.884 418.071C350.681 418.118 350.423 418.142 350.11 418.142C349.637 418.142 349.173 418.04 348.718 417.837C348.268 417.633 347.894 417.323 347.596 416.906C347.302 416.49 347.156 415.964 347.156 415.33V404.477ZM61.5341 448V437.091H63.1534V438.795H63.2955C63.5227 438.213 63.8897 437.761 64.3963 437.439C64.9029 437.112 65.5114 436.949 66.2216 436.949C66.9413 436.949 67.5402 437.112 68.0185 437.439C68.5014 437.761 68.8778 438.213 69.1477 438.795H69.2614C69.5407 438.232 69.9598 437.785 70.5185 437.453C71.0772 437.117 71.7472 436.949 72.5284 436.949C73.5038 436.949 74.3016 437.254 74.9219 437.865C75.5421 438.471 75.8523 439.416 75.8523 440.699V448H74.1761V440.699C74.1761 439.894 73.956 439.319 73.5156 438.973C73.0753 438.627 72.5568 438.455 71.9602 438.455C71.1932 438.455 70.599 438.687 70.1776 439.151C69.7562 439.61 69.5455 440.192 69.5455 440.898V448H67.8409V440.528C67.8409 439.908 67.6397 439.409 67.2372 439.03C66.8348 438.646 66.3163 438.455 65.6818 438.455C65.2462 438.455 64.839 438.571 64.4602 438.803C64.0862 439.035 63.7831 439.357 63.5511 439.768C63.3239 440.176 63.2102 440.647 63.2102 441.182V448H61.5341ZM82.1271 448.256C81.4358 448.256 80.8085 448.125 80.245 447.865C79.6816 447.6 79.2341 447.219 78.9027 446.722C78.5713 446.22 78.4055 445.614 78.4055 444.903C78.4055 444.278 78.5286 443.772 78.7749 443.384C79.0211 442.991 79.3501 442.683 79.7621 442.46C80.174 442.238 80.6286 442.072 81.1257 441.963C81.6276 441.849 82.1319 441.759 82.6385 441.693C83.3014 441.608 83.8388 441.544 84.2507 441.501C84.6674 441.454 84.9704 441.376 85.1598 441.267C85.3539 441.158 85.451 440.969 85.451 440.699V440.642C85.451 439.941 85.2592 439.397 84.8757 439.009C84.4969 438.62 83.9216 438.426 83.1499 438.426C82.3497 438.426 81.7223 438.601 81.2678 438.952C80.8132 439.302 80.4936 439.676 80.3089 440.074L78.718 439.506C79.0021 438.843 79.3809 438.327 79.8544 437.957C80.3326 437.583 80.8535 437.323 81.4169 437.176C81.9851 437.025 82.5438 436.949 83.093 436.949C83.4434 436.949 83.8459 436.991 84.3004 437.077C84.7597 437.157 85.2024 437.325 85.6286 437.581C86.0594 437.837 86.4169 438.223 86.701 438.739C86.9851 439.255 87.1271 439.946 87.1271 440.812V448H85.451V446.523H85.3658C85.2521 446.759 85.0627 447.013 84.7976 447.283C84.5324 447.553 84.1797 447.782 83.7393 447.972C83.299 448.161 82.7616 448.256 82.1271 448.256ZM82.3828 446.75C83.0457 446.75 83.6044 446.62 84.0589 446.359C84.5182 446.099 84.8639 445.763 85.0959 445.351C85.3326 444.939 85.451 444.506 85.451 444.051V442.517C85.38 442.602 85.2237 442.68 84.9822 442.751C84.7455 442.818 84.4709 442.877 84.1584 442.929C83.8506 442.976 83.55 443.019 83.2564 443.057C82.9676 443.09 82.7332 443.118 82.5533 443.142C82.1177 443.199 81.7105 443.291 81.3317 443.419C80.9576 443.542 80.6546 443.729 80.4226 443.98C80.1953 444.226 80.0817 444.562 80.0817 444.989C80.0817 445.571 80.2971 446.011 80.728 446.31C81.1636 446.603 81.7152 446.75 82.3828 446.75ZM94.9308 437.091V438.511H89.2773V437.091H94.9308ZM90.9251 434.477H92.6012V444.875C92.6012 445.348 92.6699 445.704 92.8072 445.94C92.9492 446.172 93.1291 446.329 93.3469 446.409C93.5695 446.485 93.8039 446.523 94.0501 446.523C94.2347 446.523 94.3862 446.513 94.5046 446.494C94.623 446.471 94.7177 446.452 94.7887 446.438L95.1296 447.943C95.016 447.986 94.8574 448.028 94.6538 448.071C94.4502 448.118 94.1921 448.142 93.8796 448.142C93.4061 448.142 92.9421 448.04 92.4876 447.837C92.0378 447.633 91.6637 447.323 91.3654 446.906C91.0719 446.49 90.9251 445.964 90.9251 445.33V434.477ZM102.196 437.091V438.511H96.543V437.091H102.196ZM98.1907 434.477H99.8668V444.875C99.8668 445.348 99.9355 445.704 100.073 445.94C100.215 446.172 100.395 446.329 100.613 446.409C100.835 446.485 101.069 446.523 101.316 446.523C101.5 446.523 101.652 446.513 101.77 446.494C101.889 446.471 101.983 446.452 102.054 446.438L102.395 447.943C102.282 447.986 102.123 448.028 101.919 448.071C101.716 448.118 101.458 448.142 101.145 448.142C100.672 448.142 100.208 448.04 99.7532 447.837C99.3034 447.633 98.9293 447.323 98.631 446.906C98.3375 446.49 98.1907 445.964 98.1907 445.33V434.477ZM104.718 448V437.091H106.394V448H104.718ZM105.57 435.273C105.243 435.273 104.962 435.161 104.725 434.939C104.493 434.716 104.377 434.449 104.377 434.136C104.377 433.824 104.493 433.556 104.725 433.334C104.962 433.111 105.243 433 105.57 433C105.897 433 106.176 433.111 106.408 433.334C106.645 433.556 106.763 433.824 106.763 434.136C106.763 434.449 106.645 434.716 106.408 434.939C106.176 435.161 105.897 435.273 105.57 435.273ZM117.191 439.534L115.685 439.96C115.591 439.709 115.451 439.465 115.266 439.229C115.086 438.987 114.84 438.788 114.528 438.632C114.215 438.476 113.815 438.398 113.327 438.398C112.66 438.398 112.103 438.552 111.658 438.859C111.218 439.162 110.998 439.548 110.998 440.017C110.998 440.434 111.149 440.763 111.452 441.004C111.755 441.246 112.229 441.447 112.873 441.608L114.492 442.006C115.468 442.242 116.194 442.605 116.673 443.092C117.151 443.575 117.39 444.198 117.39 444.96C117.39 445.585 117.21 446.144 116.85 446.636C116.495 447.129 115.998 447.517 115.359 447.801C114.719 448.085 113.976 448.227 113.129 448.227C112.016 448.227 111.095 447.986 110.366 447.503C109.637 447.02 109.175 446.314 108.981 445.386L110.572 444.989C110.723 445.576 111.01 446.016 111.431 446.31C111.857 446.603 112.414 446.75 113.1 446.75C113.881 446.75 114.502 446.584 114.961 446.253C115.425 445.917 115.657 445.514 115.657 445.045C115.657 444.667 115.524 444.349 115.259 444.094C114.994 443.833 114.587 443.639 114.038 443.511L112.219 443.085C111.22 442.848 110.487 442.482 110.018 441.984C109.554 441.482 109.322 440.855 109.322 440.102C109.322 439.487 109.495 438.942 109.84 438.469C110.191 437.995 110.666 437.624 111.268 437.354C111.874 437.084 112.56 436.949 113.327 436.949C114.407 436.949 115.254 437.186 115.87 437.659C116.49 438.133 116.931 438.758 117.191 439.534ZM130.112 448.227C129.061 448.227 128.154 447.995 127.392 447.531C126.634 447.062 126.049 446.409 125.637 445.571C125.23 444.728 125.027 443.748 125.027 442.631C125.027 441.513 125.23 440.528 125.637 439.676C126.049 438.819 126.622 438.152 127.356 437.673C128.095 437.19 128.957 436.949 129.941 436.949C130.51 436.949 131.071 437.044 131.625 437.233C132.179 437.422 132.683 437.73 133.137 438.156C133.592 438.578 133.954 439.136 134.224 439.832C134.494 440.528 134.629 441.385 134.629 442.403V443.114H126.22V441.665H132.924C132.924 441.049 132.801 440.5 132.555 440.017C132.314 439.534 131.968 439.153 131.518 438.874C131.073 438.594 130.547 438.455 129.941 438.455C129.274 438.455 128.696 438.62 128.208 438.952C127.725 439.278 127.354 439.705 127.093 440.23C126.833 440.756 126.703 441.319 126.703 441.92V442.886C126.703 443.71 126.845 444.409 127.129 444.982C127.418 445.55 127.818 445.983 128.329 446.281C128.841 446.575 129.435 446.722 130.112 446.722C130.552 446.722 130.95 446.66 131.305 446.537C131.665 446.409 131.975 446.22 132.235 445.969C132.496 445.713 132.697 445.396 132.839 445.017L134.458 445.472C134.288 446.021 134.002 446.504 133.599 446.92C133.197 447.332 132.699 447.654 132.108 447.886C131.516 448.114 130.85 448.227 130.112 448.227ZM144.906 439.534L143.4 439.96C143.306 439.709 143.166 439.465 142.981 439.229C142.801 438.987 142.555 438.788 142.243 438.632C141.93 438.476 141.53 438.398 141.042 438.398C140.375 438.398 139.818 438.552 139.373 438.859C138.933 439.162 138.713 439.548 138.713 440.017C138.713 440.434 138.864 440.763 139.167 441.004C139.47 441.246 139.944 441.447 140.588 441.608L142.207 442.006C143.182 442.242 143.909 442.605 144.387 443.092C144.866 443.575 145.105 444.198 145.105 444.96C145.105 445.585 144.925 446.144 144.565 446.636C144.21 447.129 143.713 447.517 143.074 447.801C142.434 448.085 141.691 448.227 140.843 448.227C139.731 448.227 138.81 447.986 138.081 447.503C137.351 447.02 136.89 446.314 136.696 445.386L138.287 444.989C138.438 445.576 138.725 446.016 139.146 446.31C139.572 446.603 140.128 446.75 140.815 446.75C141.596 446.75 142.217 446.584 142.676 446.253C143.14 445.917 143.372 445.514 143.372 445.045C143.372 444.667 143.239 444.349 142.974 444.094C142.709 443.833 142.302 443.639 141.752 443.511L139.934 443.085C138.935 442.848 138.201 442.482 137.733 441.984C137.269 441.482 137.037 440.855 137.037 440.102C137.037 439.487 137.209 438.942 137.555 438.469C137.905 437.995 138.381 437.624 138.983 437.354C139.589 437.084 140.275 436.949 141.042 436.949C142.122 436.949 142.969 437.186 143.585 437.659C144.205 438.133 144.645 438.758 144.906 439.534ZM152.372 437.091V438.511H146.719V437.091H152.372ZM148.366 434.477H150.043V444.875C150.043 445.348 150.111 445.704 150.249 445.94C150.391 446.172 150.571 446.329 150.788 446.409C151.011 446.485 151.245 446.523 151.491 446.523C151.676 446.523 151.828 446.513 151.946 446.494C152.064 446.471 152.159 446.452 152.23 446.438L152.571 447.943C152.457 447.986 152.299 448.028 152.095 448.071C151.892 448.118 151.634 448.142 151.321 448.142C150.848 448.142 150.384 448.04 149.929 447.837C149.479 447.633 149.105 447.323 148.807 446.906C148.513 446.49 148.366 445.964 148.366 445.33V434.477ZM162.195 441.438V448H160.518V437.091H162.138V438.795H162.28C162.536 438.241 162.924 437.796 163.445 437.46C163.965 437.119 164.638 436.949 165.462 436.949C166.2 436.949 166.847 437.1 167.401 437.403C167.955 437.702 168.385 438.156 168.693 438.767C169.001 439.373 169.155 440.14 169.155 441.068V448H167.479V441.182C167.479 440.325 167.256 439.657 166.811 439.179C166.366 438.696 165.755 438.455 164.979 438.455C164.444 438.455 163.965 438.571 163.544 438.803C163.127 439.035 162.798 439.373 162.557 439.818C162.315 440.263 162.195 440.803 162.195 441.438ZM172.218 448V437.091H173.894V448H172.218ZM173.07 435.273C172.743 435.273 172.462 435.161 172.225 434.939C171.993 434.716 171.877 434.449 171.877 434.136C171.877 433.824 171.993 433.556 172.225 433.334C172.462 433.111 172.743 433 173.07 433C173.397 433 173.676 433.111 173.908 433.334C174.145 433.556 174.263 433.824 174.263 434.136C174.263 434.449 174.145 434.716 173.908 434.939C173.676 435.161 173.397 435.273 173.07 435.273ZM177.191 448V433.455H178.867V438.824H179.009C179.132 438.634 179.303 438.393 179.521 438.099C179.743 437.801 180.06 437.536 180.472 437.304C180.889 437.067 181.452 436.949 182.163 436.949C183.081 436.949 183.891 437.179 184.592 437.638C185.292 438.097 185.839 438.748 186.232 439.591C186.625 440.434 186.822 441.428 186.822 442.574C186.822 443.729 186.625 444.731 186.232 445.578C185.839 446.421 185.295 447.074 184.599 447.538C183.903 447.998 183.1 448.227 182.191 448.227C181.49 448.227 180.929 448.111 180.508 447.879C180.086 447.643 179.762 447.375 179.535 447.077C179.308 446.774 179.132 446.523 179.009 446.324H178.81V448H177.191ZM178.839 442.545C178.839 443.369 178.96 444.096 179.201 444.726C179.442 445.351 179.795 445.841 180.259 446.196C180.723 446.546 181.291 446.722 181.964 446.722C182.665 446.722 183.249 446.537 183.718 446.168C184.192 445.794 184.547 445.292 184.783 444.662C185.025 444.027 185.146 443.322 185.146 442.545C185.146 441.778 185.027 441.087 184.79 440.472C184.558 439.851 184.206 439.361 183.732 439.001C183.263 438.637 182.674 438.455 181.964 438.455C181.282 438.455 180.709 438.627 180.245 438.973C179.781 439.314 179.431 439.792 179.194 440.408C178.957 441.018 178.839 441.731 178.839 442.545ZM191.062 441.438V448H189.386V433.455H191.062V438.795H191.204C191.46 438.232 191.843 437.785 192.354 437.453C192.871 437.117 193.557 436.949 194.414 436.949C195.157 436.949 195.808 437.098 196.367 437.396C196.926 437.69 197.359 438.142 197.667 438.753C197.979 439.359 198.136 440.131 198.136 441.068V448H196.46V441.182C196.46 440.315 196.235 439.645 195.785 439.172C195.34 438.694 194.722 438.455 193.931 438.455C193.382 438.455 192.889 438.571 192.454 438.803C192.023 439.035 191.682 439.373 191.431 439.818C191.185 440.263 191.062 440.803 191.062 441.438ZM202.424 448.114C202.073 448.114 201.773 447.988 201.522 447.737C201.271 447.486 201.145 447.186 201.145 446.835C201.145 446.485 201.271 446.184 201.522 445.933C201.773 445.682 202.073 445.557 202.424 445.557C202.774 445.557 203.075 445.682 203.326 445.933C203.577 446.184 203.702 446.485 203.702 446.835C203.702 447.067 203.643 447.28 203.525 447.474C203.411 447.669 203.257 447.825 203.063 447.943C202.873 448.057 202.66 448.114 202.424 448.114Z" fill="#B8BBC1"/>
<g opacity="0.05">
<path d="M643.631 863.905H547.976C537.74 734.851 408.341 740.4 408.341 740.4V641C640.347 654.965 643.631 863.905 643.631 863.905Z" fill="white"/>
<path d="M460.339 863.905H364.685C354.4 734.851 225 740.4 225 740.4V641C457.105 654.965 460.339 863.905 460.339 863.905Z" fill="white"/>
</g>
</svg>
