<svg width="50" height="50" viewBox="0 0 50 50" fill="none" xmlns="http://www.w3.org/2000/svg">
<path opacity="0.4" d="M43.8346 14.9792L25.0013 25.875L6.16797 14.9792C7.0013 13.4375 8.20964 12.0833 9.5638 11.3333L20.6888 5.16666C23.0638 3.83333 26.9388 3.83333 29.3138 5.16666L40.4388 11.3333C41.793 12.0833 43.0013 13.4375 43.8346 14.9792Z" fill="#060513"/>
<path opacity="0.6" d="M25.0013 25.875V45.8333C23.4388 45.8333 21.8763 45.5 20.6888 44.8333L9.5638 38.6667C7.04297 37.2708 4.98047 33.7708 4.98047 30.8958V19.1042C4.98047 17.7708 5.4388 16.3125 6.16797 14.9792L25.0013 25.875Z" fill="#060513"/>
<path d="M45.0228 19.1042V30.8958C45.0228 33.7708 42.9603 37.2708 40.4395 38.6667L29.3145 44.8333C28.127 45.5 26.5645 45.8333 25.002 45.8333V25.875L43.8353 14.9792C44.5645 16.3125 45.0228 17.7708 45.0228 19.1042Z" fill="#060513"/>
</svg>
