<svg width="54" height="50" viewBox="0 0 54 50" fill="none" xmlns="http://www.w3.org/2000/svg">
<g clip-path="url(#clip0_28_3260)">
<path d="M25.0088 21.0258C22.7892 24.7571 20.6626 28.3705 18.4917 31.9567C17.9342 32.8774 17.6582 33.6274 18.1036 34.7976C19.3333 38.0307 17.5986 41.1769 14.3384 42.0309C11.2637 42.8365 8.26814 40.8158 7.6581 37.524C7.11752 34.6104 9.37859 31.7541 12.5911 31.2987C12.8602 31.2602 13.1351 31.2558 13.5873 31.2219L18.4739 23.0278C15.4005 19.9718 13.5712 16.3996 13.976 11.9729C14.2622 8.84384 15.4928 6.13967 17.7417 3.92337C22.0492 -0.320957 28.6207 -1.00819 33.6927 2.24953C38.5638 5.3788 40.7947 11.4742 38.893 16.6911C37.4592 16.3024 36.0152 15.9103 34.428 15.4798C35.0251 12.5792 34.5834 9.97458 32.6272 7.74322C31.3347 6.27 29.6762 5.49783 27.7904 5.21332C24.0097 4.64219 20.2978 7.07104 19.1963 10.7819C17.9461 14.9932 19.8384 18.4335 25.0088 21.026V21.0258Z" fill="#C73A63"/>
<path d="M31.3476 16.613C32.9114 19.3718 34.4993 22.1722 36.0729 24.9469C44.0268 22.486 50.0239 26.8891 52.1753 31.6031C54.774 37.2974 52.9975 44.0417 47.894 47.5549C42.6555 51.1611 36.0306 50.545 31.3895 45.9124C32.5723 44.9223 33.761 43.9277 35.0311 42.8652C39.6151 45.8342 43.6245 45.6944 46.6011 42.1785C49.1393 39.1792 49.0843 34.7071 46.4724 31.7707C43.4582 28.3822 39.4208 28.2789 34.5405 31.5315C32.516 27.9399 30.4564 24.377 28.496 20.7594C27.8349 19.5402 27.1052 18.8327 25.6152 18.5747C23.1272 18.1434 21.5209 16.0068 21.4245 13.6131C21.3297 11.2457 22.7245 9.10576 24.9044 8.27208C27.0638 7.44594 29.5978 8.11267 31.0503 9.94864C32.2374 11.4486 32.6146 13.1369 31.9899 14.9869C31.8162 15.5028 31.5913 16.0019 31.3476 16.6132V16.613Z" fill="#4B4B4B"/>
<path d="M35.0847 39.1652H25.5094C24.5917 42.94 22.6093 45.9877 19.1936 47.9258C16.5382 49.432 13.6763 49.9427 10.6303 49.4509C5.02193 48.5465 0.436182 43.4978 0.0324191 37.8129C-0.424482 31.3728 4.00206 25.6483 9.90223 24.3625C10.3095 25.8418 10.7213 27.3353 11.1286 28.8111C5.71523 31.573 3.8416 35.0529 5.35665 39.4043C6.69033 43.2336 10.4788 45.3325 14.5924 44.5208C18.7932 43.6919 20.9112 40.2007 20.6526 34.5978C24.635 34.5978 28.6207 34.5566 32.6035 34.6181C34.1588 34.6426 35.3594 34.4813 36.5309 33.1102C38.4598 30.8541 42.0102 31.0577 44.0876 33.1884C46.2106 35.366 46.1089 38.8698 43.8623 40.9555C41.6947 42.9681 38.2702 42.8605 36.2422 40.6919C35.8255 40.2451 35.497 39.7143 35.0847 39.1652Z" fill="#4A4A4A"/>
</g>
<defs>
<clipPath id="clip0_28_3260">
<rect width="53.5561" height="50" fill="white"/>
</clipPath>
</defs>
</svg>
