<svg width="168" height="30" viewBox="0 0 168 30" fill="none" xmlns="http://www.w3.org/2000/svg">
<path d="M46.774 24.9054H36.0865C34.9428 10.4861 20.4849 11.1061 20.4849 11.1061V0C46.4071 1.56031 46.774 24.9054 46.774 24.9054Z" fill="white"/>
<path d="M26.2947 24.9054H15.6071C14.4579 10.4861 0 11.1061 0 11.1061V0C25.9333 1.56031 26.2947 24.9054 26.2947 24.9054Z" fill="white"/>
<path d="M54.9859 24.5594V11.0274H56.9945V13.1418H57.1707C57.4526 12.4194 57.9078 11.8585 58.5363 11.4591C59.1647 11.0539 59.9194 10.8512 60.8004 10.8512C61.6931 10.8512 62.4361 11.0539 63.0293 11.4591C63.6284 11.8585 64.0953 12.4194 64.4301 13.1418H64.571C64.9176 12.4429 65.4373 11.8879 66.1304 11.4767C66.8234 11.0597 67.6545 10.8512 68.6236 10.8512C69.8335 10.8512 70.8231 11.2301 71.5925 11.9877C72.3619 12.7395 72.7466 13.9112 72.7466 15.5029V24.5594H70.6675V15.5029C70.6675 14.5044 70.3944 13.7908 69.8481 13.3621C69.3019 12.9333 68.6588 12.7189 67.9188 12.7189C66.9673 12.7189 66.2302 13.0067 65.7075 13.5823C65.1848 14.152 64.9234 14.8744 64.9234 15.7495V24.5594H62.8091V15.2914C62.8091 14.522 62.5594 13.9024 62.0602 13.4325C61.561 12.9568 60.9179 12.7189 60.1308 12.7189C59.5905 12.7189 59.0854 12.8628 58.6156 13.1506C58.1516 13.4384 57.7757 13.8378 57.4879 14.3488C57.206 14.8539 57.065 15.4383 57.065 16.1019V24.5594H54.9859ZM76.5481 24.5594V11.0274H78.6272V24.5594H76.5481ZM77.6052 8.77212C77.2 8.77212 76.8505 8.63409 76.5569 8.35805C76.2691 8.08201 76.1252 7.75017 76.1252 7.36253C76.1252 6.9749 76.2691 6.64306 76.5569 6.36702C76.8505 6.09098 77.2 5.95295 77.6052 5.95295C78.0105 5.95295 78.357 6.09098 78.6448 6.36702C78.9385 6.64306 79.0853 6.9749 79.0853 7.36253C79.0853 7.75017 78.9385 8.08201 78.6448 8.35805C78.357 8.63409 78.0105 8.77212 77.6052 8.77212ZM87.9326 24.8413C86.664 24.8413 85.5716 24.5418 84.6553 23.9427C83.7391 23.3437 83.0343 22.5185 82.541 21.4672C82.0476 20.4158 81.8009 19.2148 81.8009 17.8639C81.8009 16.4896 82.0535 15.2767 82.5586 14.2254C83.0696 13.1682 83.7802 12.3431 84.6906 11.7499C85.6068 11.1508 86.6757 10.8512 87.8974 10.8512C88.8489 10.8512 89.7063 11.0274 90.4699 11.3798C91.2334 11.7322 91.8589 12.2256 92.3464 12.8599C92.8339 13.4942 93.1363 14.2342 93.2538 15.08H91.1747C91.0161 14.4633 90.6637 13.9171 90.1175 13.4414C89.5771 12.9597 88.8489 12.7189 87.9326 12.7189C87.1221 12.7189 86.4115 12.9304 85.8006 13.3533C85.1957 13.7703 84.7229 14.3605 84.3822 15.124C84.0475 15.8817 83.8801 16.7715 83.8801 17.7934C83.8801 18.8389 84.0445 19.7492 84.3734 20.5245C84.7082 21.2998 85.1781 21.9018 85.783 22.3305C86.3938 22.7593 87.1104 22.9736 87.9326 22.9736C88.473 22.9736 88.9634 22.8797 89.4039 22.6917C89.8444 22.5038 90.2173 22.2336 90.5227 21.8812C90.8281 21.5288 91.0454 21.1059 91.1747 20.6126H93.2538C93.1363 21.4114 92.8456 22.1308 92.3816 22.771C91.9235 23.4053 91.3156 23.9104 90.558 24.2863C89.8062 24.6563 88.9311 24.8413 87.9326 24.8413ZM96.2932 24.5594V11.0274H98.3019V13.0713H98.4428C98.6895 12.4018 99.1359 11.8585 99.7819 11.4415C100.428 11.0245 101.156 10.816 101.967 10.816C102.119 10.816 102.31 10.8189 102.539 10.8248C102.768 10.8307 102.942 10.8395 103.059 10.8512V12.9656C102.989 12.948 102.827 12.9216 102.575 12.8863C102.328 12.8452 102.067 12.8247 101.791 12.8247C101.133 12.8247 100.545 12.9627 100.029 13.2387C99.5176 13.5089 99.1124 13.8848 98.8128 14.3664C98.5192 14.8421 98.3723 15.3854 98.3723 15.9962V24.5594H96.2932ZM110.609 24.8413C109.388 24.8413 108.316 24.5506 107.394 23.9692C106.477 23.3877 105.761 22.5743 105.244 21.5288C104.733 20.4834 104.478 19.2617 104.478 17.8639C104.478 16.4543 104.733 15.2239 105.244 14.1726C105.761 13.1213 106.477 12.3049 107.394 11.7234C108.316 11.142 109.388 10.8512 110.609 10.8512C111.831 10.8512 112.9 11.142 113.816 11.7234C114.738 12.3049 115.455 13.1213 115.966 14.1726C116.483 15.2239 116.741 16.4543 116.741 17.8639C116.741 19.2617 116.483 20.4834 115.966 21.5288C115.455 22.5743 114.738 23.3877 113.816 23.9692C112.9 24.5506 111.831 24.8413 110.609 24.8413ZM110.609 22.9736C111.537 22.9736 112.301 22.7358 112.9 22.26C113.499 21.7843 113.942 21.1588 114.23 20.3835C114.518 19.6083 114.662 18.7684 114.662 17.8639C114.662 16.9594 114.518 16.1166 114.23 15.3355C113.942 14.5543 113.499 13.923 112.9 13.4414C112.301 12.9597 111.537 12.7189 110.609 12.7189C109.681 12.7189 108.918 12.9597 108.319 13.4414C107.72 13.923 107.276 14.5543 106.988 15.3355C106.701 16.1166 106.557 16.9594 106.557 17.8639C106.557 18.7684 106.701 19.6083 106.988 20.3835C107.276 21.1588 107.72 21.7843 108.319 22.26C108.918 22.7358 109.681 22.9736 110.609 22.9736ZM125.941 11.0274V12.7894H118.646V11.0274H125.941ZM120.831 24.5594V9.15975C120.831 8.38448 121.013 7.73842 121.377 7.22158C121.741 6.70473 122.214 6.31709 122.796 6.05867C123.377 5.80025 123.991 5.67104 124.637 5.67104C125.148 5.67104 125.565 5.71215 125.888 5.79438C126.211 5.8766 126.452 5.95295 126.61 6.02343L126.011 7.82065C125.905 7.78541 125.759 7.74136 125.571 7.6885C125.389 7.63564 125.148 7.60921 124.848 7.60921C124.161 7.60921 123.665 7.78247 123.359 8.12899C123.06 8.47552 122.91 8.98355 122.91 9.6531V24.5594H120.831ZM130.934 6.51679V24.5594H128.855V6.51679H130.934ZM140.239 24.8413C139.017 24.8413 137.946 24.5506 137.023 23.9692C136.107 23.3877 135.391 22.5743 134.874 21.5288C134.363 20.4834 134.107 19.2617 134.107 17.8639C134.107 16.4543 134.363 15.2239 134.874 14.1726C135.391 13.1213 136.107 12.3049 137.023 11.7234C137.946 11.142 139.017 10.8512 140.239 10.8512C141.461 10.8512 142.53 11.142 143.446 11.7234C144.368 12.3049 145.085 13.1213 145.595 14.1726C146.112 15.2239 146.371 16.4543 146.371 17.8639C146.371 19.2617 146.112 20.4834 145.595 21.5288C145.085 22.5743 144.368 23.3877 143.446 23.9692C142.53 24.5506 141.461 24.8413 140.239 24.8413ZM140.239 22.9736C141.167 22.9736 141.931 22.7358 142.53 22.26C143.129 21.7843 143.572 21.1588 143.86 20.3835C144.148 19.6083 144.292 18.7684 144.292 17.8639C144.292 16.9594 144.148 16.1166 143.86 15.3355C143.572 14.5543 143.129 13.923 142.53 13.4414C141.931 12.9597 141.167 12.7189 140.239 12.7189C139.311 12.7189 138.548 12.9597 137.949 13.4414C137.349 13.923 136.906 14.5543 136.618 15.3355C136.33 16.1166 136.187 16.9594 136.187 17.8639C136.187 18.7684 136.33 19.6083 136.618 20.3835C136.906 21.1588 137.349 21.7843 137.949 22.26C138.548 22.7358 139.311 22.9736 140.239 22.9736ZM152.15 24.5594L148.027 11.0274H150.212L153.137 21.3879H153.278L156.167 11.0274H158.387L161.242 21.3526H161.383L164.308 11.0274H166.493L162.369 24.5594H160.326L157.365 14.1638H157.154L154.194 24.5594H152.15Z" fill="white"/>
</svg>
